<svg width="40" height="40" viewBox="0 0 40 40" fill="none" xmlns="http://www.w3.org/2000/svg">
<path fill-rule="evenodd" clip-rule="evenodd" d="M2.5 11.5646V28.4355C2.5 29.5539 3.08879 30.5871 4.04336 31.1452L18.4567 39.5806C19.4124 40.1398 20.5888 40.1398 21.5434 39.5806L35.9567 31.1452C36.9124 30.586 37.5 29.5527 37.5 28.4355V11.5646C37.5 10.4462 36.9112 9.41285 35.9567 8.85487L21.5434 0.419402C20.5877 -0.139801 19.4112 -0.139801 18.4567 0.419402L4.04336 8.85487C3.0876 9.41406 2.5 10.4474 2.5 11.5646ZM25.1781 14.4623L23.445 12.5397H31.4346L23.1211 22.0956C22.3527 21.1719 21.5958 20.2618 20.8336 19.3453C22.2881 17.7105 23.7279 16.0918 25.1781 14.4623ZM22.1028 23.1573L15.0478 14.2461L16.653 12.5018H8.66479L18.034 23.1573V30.0209L19.975 32.334L22.1028 30.0209V23.1573Z" fill="white"/>
</svg>
