<svg width="225" height="49" viewBox="0 0 225 49" fill="none" xmlns="http://www.w3.org/2000/svg">
<g clip-path="url(#clip0_185_298)">
<path fill-rule="evenodd" clip-rule="evenodd" d="M6.5 15.8873V32.7583C6.5 33.8767 7.08879 34.9099 8.04336 35.468L22.4567 43.9033C23.4124 44.4626 24.5888 44.4626 25.5434 43.9033L39.9567 35.468C40.9124 34.9088 41.5 33.8754 41.5 32.7583V15.8873C41.5 14.7689 40.9112 13.7356 39.9567 13.1776L25.5434 4.74216C24.5877 4.18295 23.4112 4.18295 22.4567 4.74216L8.04336 13.1776C7.0876 13.7368 6.5 14.7701 6.5 15.8873ZM29.1781 18.785L27.445 16.8624H35.4346L27.1211 26.4184C26.3527 25.4946 25.5958 24.5845 24.8336 23.6681C26.2881 22.0332 27.7279 20.4146 29.1781 18.785ZM26.1028 27.4801L19.0478 18.5688L20.653 16.8245H12.6648L22.034 27.4801V34.3436L23.975 36.6567L26.1028 34.3436V27.4801Z" fill="white"/>
</g>
<path d="M197.376 32.2668C198.748 32.9708 200.39 33.3228 202.304 33.3228C204.489 33.3228 206.426 32.8508 208.116 31.9068L207.351 28.9788C205.676 29.9068 204.041 30.3708 202.448 30.3708C201.235 30.3708 200.19 30.1308 199.314 29.6508C198.436 29.1708 197.766 28.4748 197.304 27.5628C196.841 26.6508 196.61 25.5708 196.61 24.3228C196.61 23.0588 196.841 21.9788 197.304 21.0828C197.766 20.1708 198.436 19.4748 199.314 18.9948C200.19 18.5148 201.235 18.2748 202.448 18.2748C204.074 18.2748 205.709 18.7388 207.351 19.6668L208.116 16.7388C206.426 15.7948 204.489 15.3228 202.304 15.3228C200.39 15.3228 198.748 15.6828 197.376 16.4028C196.005 17.1068 194.953 18.1308 194.219 19.4748C193.501 20.8188 193.143 22.4348 193.143 24.3228C193.143 26.2108 193.501 27.8268 194.219 29.1708C194.953 30.5148 196.005 31.5468 197.376 32.2668Z" fill="white"/>
<path d="M212.556 15.5627V33.0827H224.421V30.2267H215.905V25.3547H223.942V22.5947H215.905V18.4187H224.421V15.5627H212.556Z" fill="white"/>
<path d="M174.985 33.0827V15.5627H178.478L185.774 27.4907H185.821V15.5627H189.17V33.0827H185.654L178.383 21.1547H178.334V33.0827H174.985Z" fill="white"/>
<path fill-rule="evenodd" clip-rule="evenodd" d="M161.138 15.5627L155.11 33.0827H158.794L160.043 29.0747H166.747L168.003 33.0827H171.686L165.659 15.5627H161.138ZM165.83 26.1467L163.41 18.4187H163.363L160.955 26.1467H165.83Z" fill="white"/>
<path d="M137.623 33.0827V15.5627H141.114L148.41 27.4907H148.458V15.5627H151.808V33.0827H148.29L141.019 21.1547H140.971V33.0827H137.623Z" fill="white"/>
<path d="M129.072 15.5627V33.0827H132.565V15.5627H129.072Z" fill="white"/>
<path d="M112.339 33.0827V15.5627H124.61V18.4907H115.688V23.1227H124.132V25.9787H115.688V33.0827H112.339Z" fill="white"/>
<path d="M96.0497 15.5627V33.0827H99.5422V15.5627H96.0497Z" fill="white"/>
<path d="M79.4555 33.0827V15.5627H91.3202V18.4187H82.8045V22.5947H90.8418V25.3547H82.8045V30.2267H91.3202V33.0827H79.4555Z" fill="white"/>
<path d="M66.3869 26.6987V33.0827H69.8792V26.6987L76.2661 15.5627H72.4866L68.157 23.7467H68.1091L63.7555 15.5627H60L66.3869 26.6987Z" fill="white"/>
<defs>
<clipPath id="clip0_185_298">
<rect width="40" height="40" fill="white" transform="translate(4 4.32275)"/>
</clipPath>
</defs>
</svg>
