<svg width="420" height="150" viewBox="0 0 420 150" fill="none" xmlns="http://www.w3.org/2000/svg">
<path d="M299.983 83.613C300.344 80.0291 299.242 76.081 294.021 74.2603L294.895 73.7429C298.179 71.8455 299.451 68.8557 299.223 65.1952C298.996 61.4963 296.983 58.9664 293.528 57.8932C289.237 56.5516 285.041 57.1457 281.111 59.3497C279.725 60.1164 279.288 61.6687 279.858 63.087C280.162 63.8536 280.427 64.1411 281.263 63.4894C283.712 61.5537 286.503 60.4805 289.674 60.6338C292.73 60.7871 294.705 62.397 295.198 65.0802C295.768 68.1849 294.401 70.8872 291.648 72.0563C289.908 72.7851 288.06 72.8033 286.208 72.8215L286.066 72.8229C284.623 72.8229 284.073 73.3212 284.092 74.4903C284.111 75.6594 284.718 76.1577 286.123 76.1769C286.473 76.1804 286.823 76.1787 287.174 76.1769C288.708 76.1693 290.247 76.1617 291.762 76.5985C294.686 77.4418 296.091 79.3583 296.053 82.5206C296.015 85.6828 294.477 87.7719 291.553 88.4235C287.566 89.3051 283.94 88.3851 280.75 85.8745C279.972 85.2612 279.668 85.4337 279.345 86.2578C278.738 87.8102 279.288 89.3626 280.902 90.2059C284.339 92.0074 287.984 92.544 291.8 91.9499C296.489 91.2216 299.508 88.2127 299.983 83.613Z" fill="white"/>
<path d="M266.174 69.8598C266.172 71.1102 266.169 72.3601 266.169 73.6087C266.169 75.2967 266.167 76.9846 266.165 78.6712C266.161 82.04 266.156 85.4032 266.169 88.7493C266.169 90.6658 267.365 91.8732 269.188 91.9307C269.89 91.9691 270.137 91.7774 270.137 91.0299C270.128 85.9408 270.128 80.8468 270.128 75.7505C270.128 70.6557 270.128 65.5585 270.118 60.4613C270.118 58.7748 269.112 57.7399 267.46 57.4715C266.511 57.3182 266.112 57.4524 266.131 58.5831C266.188 62.3353 266.181 66.0982 266.174 69.8557V69.8598Z" fill="white"/>
<path fill-rule="evenodd" clip-rule="evenodd" d="M224.23 88.8643C225.483 91.7966 226.223 92.2182 229.451 91.8349C229.537 91.588 229.427 91.3851 229.327 91.2013C229.296 91.1425 229.265 91.0856 229.242 91.0299C224.497 80.4167 219.772 69.8034 215.046 59.1901L215.04 59.1772C214.528 58.0273 213.92 57.2032 212.553 57.184C211.186 57.184 210.579 58.0465 210.085 59.1772L196.074 90.685C196.033 90.7716 195.984 90.8572 195.934 90.9434C195.775 91.2198 195.612 91.5035 195.713 91.8541C198.997 92.199 199.662 91.8157 200.972 88.8643C201.258 88.2062 201.549 87.5509 201.841 86.8952L201.841 86.8946C202.305 85.851 202.769 84.8063 203.212 83.7471C203.44 83.1913 203.744 82.9997 204.332 82.9997C209.857 83.0189 215.363 83.0189 220.888 82.9997C221.496 82.9997 221.78 83.1913 222.008 83.7471C222.477 84.897 222.979 86.0298 223.481 87.1626C223.732 87.7291 223.983 88.2956 224.23 88.8643ZM205.016 79.6649H220.224L212.591 62.3012C211.631 64.5018 210.689 66.6633 209.756 68.8029L209.748 68.8207C208.157 72.4701 206.594 76.0561 205.016 79.6649Z" fill="white"/>
<path fill-rule="evenodd" clip-rule="evenodd" d="M234.634 75.2761V59.9822C234.634 58.1231 235.203 57.4332 236.988 57.4332C238.185 57.4332 239.38 57.4204 240.574 57.4075L240.575 57.4075C243.758 57.3733 246.937 57.3392 250.126 57.5482C254.702 57.8548 258.195 60.6146 259.087 64.6202C260.72 71.8838 256.638 77.3268 249.253 77.6334C246.353 77.7554 243.438 77.7189 240.522 77.6825C240.23 77.6789 239.938 77.6752 239.646 77.6717C238.811 77.6717 238.602 77.9017 238.621 78.7258C238.659 82.1181 238.659 85.5103 238.64 88.9218C238.64 90.6275 237.52 91.7774 235.849 91.9499C234.976 92.0457 234.596 91.854 234.615 90.8191C234.655 87.1088 234.648 83.4082 234.64 79.7104C234.637 78.232 234.634 76.754 234.634 75.2761ZM238.64 67.5142C238.64 66.9552 238.643 66.3961 238.646 65.8376V65.8363C238.654 64.442 238.661 63.0505 238.621 61.6687C238.602 60.998 238.792 60.8063 239.456 60.8255C240.588 60.8394 241.721 60.8331 242.853 60.8267C244.834 60.8157 246.816 60.8046 248.797 60.9021C255.195 61.1896 256.164 65.9618 254.968 70.3123C254.322 72.6313 252.442 73.762 250.183 74.107C247.819 74.455 245.447 74.4161 243.072 74.3772C241.785 74.356 240.497 74.3349 239.209 74.3753C238.593 74.3921 238.605 74.0402 238.617 73.6819C238.619 73.6317 238.621 73.5815 238.621 73.532C238.64 71.5197 238.64 69.5265 238.64 67.5142Z" fill="white"/>
<path fill-rule="evenodd" clip-rule="evenodd" d="M120.633 103H133.432L145.179 58.4922L120.124 102.118C119.785 102.457 120.124 103 120.667 103H120.633Z" fill="white"/>
<path fill-rule="evenodd" clip-rule="evenodd" d="M178.111 91.2539L133.264 103H183.917C184.46 103 184.799 102.457 184.46 102.118L178.145 91.2539H178.111Z" fill="white"/>
<path fill-rule="evenodd" clip-rule="evenodd" d="M171.287 84.4295L178.111 91.2534L152.547 47.2546C152.377 46.9151 151.664 46.9151 151.494 47.2546L145.01 58.458L171.287 84.3956V84.4295Z" fill="white"/>
<path fill-rule="evenodd" clip-rule="evenodd" d="M142.566 100.521V67.9297L133.264 103L142.566 100.521Z" fill="white"/>
<path fill-rule="evenodd" clip-rule="evenodd" d="M142.566 67.9309L171.288 84.4305L145.011 58.459L142.566 67.9309Z" fill="white"/>
<path fill-rule="evenodd" clip-rule="evenodd" d="M142.566 100.522L178.112 91.2536L171.288 84.4297L142.566 100.522Z" fill="white"/>
<path fill-rule="evenodd" clip-rule="evenodd" d="M142.566 100.521L148.677 97.0243L142.566 74.957V100.521Z" fill="white"/>
<path fill-rule="evenodd" clip-rule="evenodd" d="M171.286 84.4292L165.141 80.8984L148.676 97.0245L171.286 84.4292Z" fill="white"/>
<path fill-rule="evenodd" clip-rule="evenodd" d="M142.566 67.9648V74.9585L165.381 81.0355L142.566 67.9648Z" fill="white"/>
<path fill-rule="evenodd" clip-rule="evenodd" d="M143.958 79.676H156.927H160.424L142.566 74.957L143.958 79.676Z" fill="white"/>
<path fill-rule="evenodd" clip-rule="evenodd" d="M143.787 79.6758L148.676 97.0241L152.173 93.697L145.688 82.6634L143.787 79.6758Z" fill="white"/>
<path fill-rule="evenodd" clip-rule="evenodd" d="M160.424 79.6758L152.174 93.697L165.143 80.898L160.424 79.6758Z" fill="white"/>
<path fill-rule="evenodd" clip-rule="evenodd" d="M156.926 79.6758H143.787L145.688 82.8331L156.926 79.6758Z" fill="white"/>
<path fill-rule="evenodd" clip-rule="evenodd" d="M153.939 90.8801L145.689 82.834L152.174 93.8676L153.939 90.8801Z" fill="white"/>
<path fill-rule="evenodd" clip-rule="evenodd" d="M160.424 79.6758H156.927L153.939 90.7094L160.424 79.6758Z" fill="white"/>
<path fill-rule="evenodd" clip-rule="evenodd" d="M120.634 103.001H133.433L145.01 58.459L120.091 102.118C119.752 102.458 120.091 103.001 120.634 103.001Z" fill="white"/>
<path fill-rule="evenodd" clip-rule="evenodd" d="M178.111 91.2539L133.264 103H183.917C184.46 103 184.799 102.457 184.46 102.118L178.145 91.2539H178.111Z" fill="white"/>
<path fill-rule="evenodd" clip-rule="evenodd" d="M171.287 84.4295L178.111 91.2534L152.547 47.2546C152.377 46.9151 151.664 46.9151 151.494 47.2546L145.01 58.458L171.287 84.3956V84.4295Z" fill="white"/>
<path fill-rule="evenodd" clip-rule="evenodd" d="M142.566 100.521V67.9297L133.264 103L142.566 100.521Z" fill="white"/>
<path fill-rule="evenodd" clip-rule="evenodd" d="M142.566 100.522L178.112 91.2536L171.288 84.4297L142.566 100.522Z" fill="white"/>
<path fill-rule="evenodd" clip-rule="evenodd" d="M142.566 100.521L148.677 97.0243L142.566 74.957V100.521Z" fill="white"/>
<path fill-rule="evenodd" clip-rule="evenodd" d="M171.286 84.4292L165.141 80.8984L148.676 97.0245L171.286 84.4292Z" fill="white"/>
<path fill-rule="evenodd" clip-rule="evenodd" d="M143.787 79.6758L148.676 97.0241L152.173 93.697L145.688 82.6634L143.787 79.6758Z" fill="white"/>
<path fill-rule="evenodd" clip-rule="evenodd" d="M160.424 79.6758L152.174 93.697L165.143 80.898L160.424 79.6758Z" fill="white"/>
<path fill-rule="evenodd" clip-rule="evenodd" d="M153.939 90.8801L145.689 82.834L152.174 93.6979L153.939 90.8801Z" fill="white"/>
<path fill-rule="evenodd" clip-rule="evenodd" d="M160.424 79.6758H156.927L153.939 90.7094L160.424 79.6758Z" fill="white"/>
</svg>
