<svg width="420" height="150" viewBox="0 0 420 150" fill="none" xmlns="http://www.w3.org/2000/svg">
<path fill-rule="evenodd" clip-rule="evenodd" d="M148.315 74.3802C149.351 73.7937 150.182 73.0632 150.786 72.2022C151.475 71.2217 151.826 70.1019 151.826 68.8754C151.826 66.5796 150.964 64.7876 149.266 63.5484C147.589 62.3236 145.281 61.7031 142.405 61.7031H132.004V88.297H142.82C145.85 88.297 148.275 87.5955 150.029 86.2102C151.796 84.8137 152.694 82.8577 152.694 80.396C152.694 78.8972 152.272 77.6077 151.441 76.5639C150.695 75.6309 149.645 74.8969 148.316 74.3802H148.315ZM137.633 66.4961H141.952C143.307 66.4961 144.33 66.7579 144.995 67.2727C145.651 67.7807 145.97 68.4487 145.97 69.3132C145.97 70.1779 145.651 70.8797 144.995 71.3899C144.33 71.9047 143.307 72.1662 141.952 72.1662H137.633V66.4961ZM145.765 82.6027C145.016 83.2007 143.873 83.5032 142.367 83.5032H137.633V76.9952H142.367C143.872 76.9952 145.017 77.2877 145.769 77.8619C146.514 78.435 146.876 79.1912 146.876 80.1767C146.876 81.2132 146.513 82.0067 145.765 82.6032V82.6027Z" fill="white"/>
<path d="M160.296 68.4109H154.629V88.296H160.296V68.4109Z" fill="white"/>
<path fill-rule="evenodd" clip-rule="evenodd" d="M212.92 68.9229C214.24 69.5044 215.364 70.3384 216.261 71.4022C217.157 72.4659 217.806 73.7132 218.191 75.1097C218.575 76.5029 218.639 78.0224 218.384 79.626L218.356 79.803H204.094C204.178 80.4722 204.32 81.0737 204.52 81.597C204.854 82.4775 205.363 83.1555 206.029 83.614C206.692 84.0727 207.515 84.3055 208.476 84.3055C209.584 84.3055 210.508 84.049 211.224 83.5427C211.829 83.1137 212.252 82.505 212.552 81.7897H218.257C217.648 83.8915 216.529 85.5705 214.903 86.761C213.215 87.998 211.091 88.6248 208.589 88.6248C206.551 88.6248 204.733 88.1927 203.184 87.3417C201.633 86.4857 200.418 85.2622 199.572 83.7025C198.729 82.1477 198.301 80.2535 198.301 78.282C198.301 76.3102 198.742 74.5332 199.612 73.0022C200.482 71.4697 201.702 70.2477 203.239 69.3679C204.773 68.4909 206.547 68.0461 208.514 68.0461C210.118 68.0461 211.601 68.3421 212.92 68.9229ZM204.539 74.9114C204.389 75.2952 204.272 75.7164 204.184 76.1212H212.409C212.326 74.9762 211.937 74.0107 211.251 73.3042C210.529 72.5617 209.57 72.1842 208.402 72.1842C207.47 72.1842 206.673 72.4157 206.032 72.8742C205.388 73.3329 204.886 74.0194 204.539 74.9114Z" fill="white"/>
<path d="M160.415 61.7031H154.512V66.4961H160.415V61.7031Z" fill="white"/>
<path fill-rule="evenodd" clip-rule="evenodd" d="M189.102 68.8136C189.988 69.2436 190.773 69.8654 191.443 70.6677V68.4112H196.656V87.1785C196.656 89.8288 195.775 91.9363 194.036 93.4415C192.308 94.938 189.893 95.6978 186.859 95.6978C185.052 95.6978 183.424 95.3918 182.021 94.7885C180.604 94.1783 179.483 93.295 178.686 92.165C177.975 91.1565 177.471 90.0058 177.421 88.2978H182.884C182.994 89.5182 183.467 90.0948 184.009 90.534C184.671 91.071 185.618 91.3425 186.821 91.3425C188.218 91.3425 189.28 90.9963 189.978 90.3098C190.674 89.6233 191.029 88.5932 191.029 87.2512V85.0862C190.501 85.7725 189.832 86.3347 189.034 86.7595C188.025 87.2965 186.874 87.5682 185.613 87.5682C183.944 87.5682 182.42 87.1397 181.084 86.2952C179.751 85.4527 178.685 84.2797 177.916 82.8067C177.148 81.339 176.759 79.7282 176.759 77.8082C176.759 75.8882 177.129 74.1767 177.857 72.7189C178.588 71.2577 179.617 70.1004 180.914 69.2817C182.213 68.4621 183.731 68.0461 185.424 68.0461C186.807 68.0461 188.044 68.3041 189.102 68.8136ZM188.936 82.1692C189.579 81.7682 190.086 81.1887 190.446 80.4497V80.4492C190.807 79.703 190.99 78.8267 190.99 77.8427C190.99 76.3239 190.588 75.0939 189.796 74.1897C189.011 73.2927 187.895 72.8392 186.632 72.8392C185.369 72.8392 184.342 73.2862 183.582 74.1697C182.814 75.0617 182.425 76.2849 182.425 77.8074C182.425 79.33 182.814 80.5532 183.582 81.444C184.352 82.3395 185.349 82.7745 186.632 82.7745C187.519 82.7745 188.294 82.5702 188.936 82.1692Z" fill="white"/>
<path d="M232.104 73.1674V68.4119H228.014V61.7031H222.385V68.4119H218.892V73.1674H222.385V80.9522C222.385 85.2802 223.241 88.461 228.574 88.3625L231.923 88.297V83.8382H230.261C228.012 83.8382 228.016 82.5989 228.022 80.2885V80.281C228.022 80.1582 228.022 80.0322 228.022 79.9035L228.013 73.1674H232.104Z" fill="white"/>
<path d="M175.383 68.4119V73.1674H171.293L171.302 79.9035C171.302 80.0322 171.302 80.1582 171.301 80.281V80.288C171.295 82.5987 171.292 83.8382 173.54 83.8382H175.202V88.297L171.854 88.3625C166.52 88.461 165.665 85.2802 165.665 80.9522V73.1674H162.171V68.4119H165.665V61.7031H171.293V68.4119H175.383Z" fill="white"/>
<path d="M300.203 61.7031H294.536V88.2958H300.203V61.7031Z" fill="white"/>
<path fill-rule="evenodd" clip-rule="evenodd" d="M261.635 88.3012L257.558 73.1272L257.267 71.7479L256.959 73.1287L252.918 88.3012H245.94L238.499 61.7086H245.33L249.328 78.9894L249.68 80.6642L250.034 78.9844L254.654 61.7086H260.189L264.772 78.9847L265.126 80.6642L265.478 78.9894L269.476 61.7086H275.982L268.541 88.3012H261.635ZM265.126 82.1502L265.126 82.1482L265.777 79.0552L269.719 62.0136L269.72 62.0139L265.777 79.0552L265.126 82.1502ZM257.856 73.0564L261.871 87.9962H261.87L257.855 73.0562L257.277 70.3069L257.277 70.3052L257.856 73.0564ZM250.332 79.0552L254.89 62.0139L254.889 62.0136L250.332 79.0552L249.681 82.1482L249.681 82.1502L250.332 79.0552ZM246.173 87.9962L238.902 62.0139L238.902 62.0136L246.172 87.9962H246.173Z" fill="white"/>
<path fill-rule="evenodd" clip-rule="evenodd" d="M274.301 75.0739H280.001C280.262 73.5602 281.305 72.5149 283.242 72.5149C285.44 72.5149 286.521 73.6322 286.521 75.7587V76.1909C283.429 76.2272 280.933 76.4794 278.325 77.3082C275.158 78.3894 273.593 80.4077 273.593 83.0387C273.593 86.7507 276.425 88.6248 280.225 88.6248C282.609 88.6248 284.993 87.7237 286.558 85.6335C286.595 86.5705 286.707 87.3995 286.893 88.0482H292.78C292.444 87.039 292.221 85.7417 292.221 83.2187V75.7947C292.221 71.2897 289.24 68.0461 283.503 68.0461C278.362 68.0461 274.897 70.7129 274.301 75.0739ZM281.976 84.8045C280.299 84.8045 279.293 83.9757 279.293 82.6782C279.293 80.8762 280.746 79.5067 286.521 79.3987V80.1555C286.521 82.8225 284.509 84.8045 281.976 84.8045Z" fill="white"/>
<path d="M302.525 61.7031H308.191V88.2958H302.525V61.7031Z" fill="white"/>
<path fill-rule="evenodd" clip-rule="evenodd" d="M327.908 71.4022C327.011 70.3384 325.888 69.5044 324.568 68.9229C323.248 68.3421 321.766 68.0461 320.161 68.0461C318.193 68.0461 316.421 68.4909 314.886 69.3679C313.348 70.2477 312.128 71.4697 311.258 73.0022C310.388 74.5332 309.948 76.3102 309.948 78.282C309.948 80.2535 310.375 82.1477 311.218 83.7025C312.065 85.2622 313.281 86.4857 314.83 87.3417C316.38 88.1927 318.198 88.6248 320.236 88.6248C322.738 88.6248 324.863 87.998 326.551 86.761C328.176 85.5705 329.296 83.8915 329.903 81.7897H324.198C323.898 82.505 323.476 83.1137 322.871 83.5427C322.156 84.049 321.231 84.3055 320.123 84.3055C319.163 84.3055 318.338 84.0727 317.676 83.614C317.01 83.1555 316.501 82.4775 316.168 81.597C315.965 81.0737 315.825 80.4722 315.74 79.803H330.003L330.031 79.626C330.286 78.0224 330.221 76.5029 329.838 75.1097C329.453 73.7132 328.803 72.4659 327.908 71.4022ZM315.83 76.1212C315.918 75.7164 316.036 75.2952 316.186 74.9114C316.533 74.0194 317.036 73.3329 317.678 72.8742C318.32 72.4157 319.116 72.1842 320.048 72.1842C321.216 72.1842 322.176 72.5617 322.898 73.3042C323.583 74.0107 323.973 74.9762 324.056 76.1212H315.83Z" fill="white"/>
<path d="M343.751 68.4119V73.1674H339.661L339.671 79.9035C339.671 79.9567 339.671 80.0095 339.668 80.0617V80.2951C339.663 82.6013 339.66 83.8382 341.908 83.8382H343.571V88.297L340.221 88.3625C334.888 88.461 334.033 85.2802 334.033 80.9522V73.1674H330.538V68.4119H334.033V61.7031H339.661V68.4119H343.751Z" fill="white"/>
<path fill-rule="evenodd" clip-rule="evenodd" d="M101.024 81.7739H89.1205L76.8512 69.6271C76.053 68.8371 76.049 67.5518 76.843 66.7576L92.5778 51H104.933L101.198 54.618L87.4835 68.1961L101.024 81.7739ZM96.2763 68.227H96.1848L96.2753 68.226L96.2763 68.227ZM96.2763 68.227H108.178L120.448 80.3738C121.246 81.1638 121.25 82.4491 120.456 83.2434L104.721 98.9999H92.366L96.1013 95.3819L109.815 81.8039L96.2763 68.227Z" fill="white"/>
<mask id="mask0_22_15502" style="mask-type:alpha" maskUnits="userSpaceOnUse" x="76" y="51" width="46" height="48">
<path fill-rule="evenodd" clip-rule="evenodd" d="M101.024 81.7739H89.1205L76.8512 69.6271C76.053 68.8371 76.049 67.5518 76.843 66.7576L92.5778 51H104.933L101.198 54.618L87.4835 68.1961L101.024 81.7739ZM96.2763 68.227H96.1848L96.2753 68.226L96.2763 68.227ZM96.2763 68.227H108.178L120.448 80.3738C121.246 81.1638 121.25 82.4491 120.456 83.2434L104.721 98.9999H92.366L96.1013 95.3819L109.815 81.8039L96.2763 68.227Z" fill="black"/>
</mask>
<g mask="url(#mask0_22_15502)">
<path d="M121 51H76.25V99.0002H121V51Z" fill="white"/>
<g filter="url(#filter0_f_22_15502)">
<path d="M107.087 89.5585C96.0937 106.35 154.9 101.608 185.677 97.1374C217.176 91.4621 195.405 66.4451 172.813 65.8914C150.221 65.3378 175.614 77.4592 156.424 80.9212C137.233 84.3833 120.829 68.5687 107.087 89.5585Z" fill="white"/>
<path d="M105.584 55.4792C99.8174 46.925 79.2793 58.5224 69.731 65.3903C60.6231 72.8612 84.397 79.317 93.722 75.8155C103.047 72.3139 85.6207 71.6326 91.1668 67.0794C96.7129 62.5261 112.793 66.1718 105.584 55.4792Z" fill="white"/>
<path d="M118.401 90.7978C110.536 76.4288 76.6545 83.9959 60.6972 89.5756C45.3476 96.1822 81.7934 115.186 96.9306 114.214C112.068 113.242 84.7876 104.969 94.1351 100.94C103.483 96.9119 128.234 108.759 118.401 90.7978Z" fill="white"/>
<path d="M136.075 56.901C119.107 45.9314 94.8168 55.0025 84.7928 60.9092C76.0214 67.5959 121.219 79.8479 133.764 77.7482C146.308 75.6485 116.658 71.3038 121.996 67.2274C127.333 63.151 157.285 70.6129 136.075 56.901Z" fill="white"/>
</g>
</g>
<defs>
<filter id="filter0_f_22_15502" x="7" y="1.75" width="244.432" height="162.5" filterUnits="userSpaceOnUse" color-interpolation-filters="sRGB">
<feFlood flood-opacity="0" result="BackgroundImageFix"/>
<feBlend mode="normal" in="SourceGraphic" in2="BackgroundImageFix" result="shape"/>
<feGaussianBlur stdDeviation="25" result="effect1_foregroundBlur_22_15502"/>
</filter>
</defs>
</svg>
