<svg width="420" height="150" viewBox="0 0 420 150" fill="none" xmlns="http://www.w3.org/2000/svg">
<path fill-rule="evenodd" clip-rule="evenodd" d="M69.9001 95.3191C67.2118 92.6301 68.8505 86.2842 73.5255 79.0256C74.2627 81.9895 75.7895 84.7972 78.1059 87.114L78.114 87.1059L78.1159 87.1076C80.358 89.3502 87.6819 85.6607 94.4743 78.8666C95.8177 77.5229 97.0397 76.1584 98.1186 74.8165C97.0357 73.4679 95.808 72.0962 94.4578 70.7455C87.6685 63.9548 80.3483 60.2654 78.1025 62.5012L78.1016 62.5003C75.7859 64.8165 74.2594 67.6231 73.5219 70.5859C68.8479 63.3282 67.2097 56.9834 69.8979 54.2946C73.9752 50.2164 86.462 56.0939 97.788 67.4225C98.9029 68.5376 99.965 69.6641 100.97 70.7926C103.272 67.0113 104.056 63.8469 102.714 62.5044L102.712 62.5025L102.715 62.4994C100.399 60.1828 97.5923 58.6557 94.6295 57.9182C101.885 53.2442 108.227 51.6062 110.915 54.2946C114.115 57.4949 111.185 65.8746 104.303 74.8083C111.183 83.7409 114.112 92.119 110.913 95.3191C108.225 98.0074 101.883 96.3696 94.6275 91.6955C97.5894 90.9578 100.395 89.4309 102.711 87.1149L102.7 87.1045C104.036 85.7617 103.256 82.6055 100.962 78.8331C99.9598 79.9575 98.9011 81.0799 97.7902 82.1913C86.4643 93.5199 73.9775 99.3973 69.9001 95.3191Z" fill="white"/>
<path fill-rule="evenodd" clip-rule="evenodd" d="M156.266 75.1397C156.862 75.3772 157.373 75.6935 157.8 76.0994H157.805C158.227 76.4949 158.559 77.0011 158.791 77.6076C159.023 78.2086 159.139 78.9258 159.139 79.7536C159.139 80.7977 158.939 81.6942 158.549 82.4481C158.153 83.2021 157.595 83.8296 156.862 84.3305C156.129 84.8263 155.249 85.1954 154.216 85.4273C153.188 85.6594 152.033 85.7754 150.763 85.7754H130.129V63.7344H149.808C152.565 63.7344 154.653 64.2195 156.061 65.1844C157.468 66.1547 158.18 67.6575 158.18 69.6928C158.18 71.222 157.832 72.3557 157.141 73.0992C156.456 73.8479 155.502 74.3541 154.294 74.6336C155.017 74.7391 155.671 74.9078 156.266 75.1397ZM149.808 67.8157H135.063V72.7459H149.903C150.936 72.7459 151.764 72.5771 152.37 72.2344C152.977 71.8969 153.277 71.2325 153.277 70.3256C153.277 69.4186 152.971 68.77 152.355 68.3851C151.738 68.0055 150.889 67.8157 149.808 67.8157ZM150.763 81.6942C151.885 81.6942 152.745 81.5096 153.346 81.1247V81.1194C153.936 80.7345 154.231 80.0806 154.231 79.142C154.231 78.3142 153.952 77.6762 153.404 77.2333C152.85 76.7903 151.975 76.5688 150.763 76.5688H135.063V81.6942H150.763ZM194.681 71.4487C194.681 73.0411 194.307 74.4227 193.58 75.6038H193.585C192.847 76.7798 191.656 77.6709 189.995 78.2615L195.219 85.7807H189.647L185.192 78.9679H171.407V85.7807H166.467V74.7232H185.15C186.721 74.7232 187.876 74.4596 188.608 73.927C189.341 73.3997 189.71 72.5771 189.71 71.4487V71.4434V71.4118C189.71 70.3098 189.336 69.4872 188.608 68.9546C187.87 68.4326 186.721 68.1637 185.15 68.1637H166.467V63.7344H185.161C186.858 63.7344 188.308 63.9295 189.52 64.3144C190.728 64.6888 191.719 65.2266 192.483 65.9068C193.253 66.5818 193.806 67.3885 194.154 68.3271C194.502 69.2604 194.681 70.2834 194.681 71.4171V71.4487ZM293.89 76.3831L281.818 63.7387H277.041V85.7796H282.039V70.7465L292.678 81.9567H295.098L305.731 70.7465V85.7796H310.765V63.7387H305.951L293.89 76.3831ZM244.859 72.5287H264.412V63.7387H269.509V85.7796H264.412V77.0529H244.859V85.7796H239.798V63.7387H244.859V72.5287ZM219.469 63.7387H214.435L200.301 85.7796H205.778L208.832 80.9567H225.076L228.13 85.7796H233.602L219.469 63.7387ZM216.954 68.1311L211.504 76.7383H222.405L216.954 68.1311ZM332.017 63.7387H337.052L351.187 85.7796H345.714L342.66 80.9567H326.416L323.362 85.7796H317.884L332.017 63.7387ZM329.088 76.7383H339.989L334.539 68.1311L329.088 76.7383Z" fill="white"/>
</svg>
