<svg width="420" height="150" viewBox="0 0 420 150" fill="none" xmlns="http://www.w3.org/2000/svg">
<path fill-rule="evenodd" clip-rule="evenodd" d="M278.82 71.7224L279.496 72.8786C279.055 72.8536 278.67 72.8286 278.341 72.8034L278.338 72.8031C277.504 72.7365 276.66 72.5873 275.805 72.3582L275.8 72.3567L275.794 72.3552C274.925 72.1123 274.131 71.7202 273.607 71.0677C273.093 70.4285 272.886 69.6461 272.886 68.8224C272.886 67.2782 273.685 66.0689 275.028 65.235C276.393 64.3775 278.236 64.0175 280.425 64.0175C282.672 64.0175 284.567 64.4629 285.924 65.5338C286.929 66.3265 287.592 67.3164 287.847 68.4848H293.767C293.516 66.0601 292.408 64.1754 290.432 62.7493L290.429 62.7473L290.427 62.7454C288.153 61.0849 284.805 60.1797 280.236 60.1797C275.733 60.1797 272.415 61.0833 270.14 62.7454L270.136 62.748L270.132 62.7505C267.866 64.3792 266.789 66.4384 266.789 69.0047C266.789 71.834 267.77 73.8221 269.646 75.1598C271.635 76.5252 274.625 77.2827 278.761 77.2827C280.165 77.2827 281.291 77.313 282.126 77.3768M279.496 72.8786C280.147 72.9153 280.917 72.9518 281.808 72.9881L281.83 72.989H281.853C283.54 72.989 285.089 73.1213 286.506 73.3809C287.907 73.6381 289.301 74.0677 290.685 74.6732L290.698 74.6788L290.71 74.6841C291.999 75.2092 292.992 76.0228 293.72 77.1349L293.724 77.14L293.727 77.145C294.44 78.2061 294.823 79.5308 294.823 81.1758C294.823 84.5018 293.644 86.8564 291.365 88.4327C289.013 90.0603 285.344 90.9581 280.187 90.9581C275.169 90.9581 271.631 89.9595 269.377 88.1542C267.42 86.5386 266.331 84.5413 266.083 82.1059H272.283C272.549 83.4006 273.289 84.4872 274.422 85.3444C275.89 86.4554 277.86 86.9379 280.187 86.9379C282.652 86.9379 284.682 86.5925 286.13 85.7653C287.674 84.8849 288.489 83.4924 288.489 81.7228C288.489 80.7466 288.2 79.8508 287.533 79.1517C286.895 78.4169 285.948 78.0134 284.892 77.8082C283.932 77.587 283.01 77.4421 282.128 77.377M279.496 72.8786C279.496 72.8785 279.496 72.8786 279.496 72.8786L282.126 77.3768L279.496 72.8786ZM279.496 72.8786L278.822 71.7225C278.82 71.7225 278.82 71.7224 278.82 71.7224M308.258 66.1975C308.258 66.1975 308.258 66.1975 308.258 66.1975V66.1975ZM312.165 72.8785C311.724 72.8536 311.339 72.8286 311.011 72.8034L311.008 72.8031C310.173 72.7365 309.329 72.5873 308.475 72.3582L308.47 72.3567L308.463 72.3552C307.595 72.1123 306.8 71.7202 306.276 71.0677C305.762 70.4285 305.556 69.6461 305.556 68.8224C305.556 67.2789 306.353 66.0699 307.696 65.2361C309.061 64.3778 310.907 64.0175 313.096 64.0175C315.342 64.0175 317.235 64.4629 318.592 65.5338C319.597 66.3265 320.263 67.3164 320.517 68.4848H326.437C326.184 66.0601 325.078 64.1754 323.1 62.7493L323.099 62.7473L323.095 62.7454C320.821 61.0849 317.473 60.1797 312.904 60.1797C308.403 60.1797 305.084 61.0833 302.809 62.7454L302.805 62.748L302.801 62.7505C300.535 64.3792 299.459 66.4384 299.459 69.0047C299.459 71.8338 300.439 73.8217 302.315 75.1594C304.303 76.5252 307.293 77.2827 311.429 77.2827C312.833 77.2827 313.96 77.313 314.795 77.3768M312.165 72.8785L311.489 71.7223C311.489 71.7223 311.489 71.7224 311.489 71.7223L312.166 72.8786C312.165 72.8786 312.165 72.8785 312.165 72.8785ZM118.355 72.1772C117.89 70.1062 116.888 68.4147 115.313 67.1796C113.551 65.7415 111.319 65.066 108.715 65.066C105.645 65.066 103.108 65.9377 101.26 67.8111C99.403 69.6639 98.5436 72.3096 98.5101 75.5574L98.51 75.5689L98.5101 75.5804C98.5437 78.8319 99.4047 81.4881 101.257 83.3686L101.26 83.3723L101.264 83.3759C103.113 85.2177 105.649 86.0718 108.715 86.0718C111.345 86.0718 113.594 85.4143 115.36 84.0046C116.92 82.759 117.904 81.0329 118.36 78.915H124.383C123.909 82.7644 122.449 85.6245 120.085 87.6172C117.464 89.7956 113.707 90.9581 108.667 90.9581C103.264 90.9581 99.2943 89.6074 96.5847 87.0682C93.8909 84.514 92.4778 80.7462 92.5083 75.5754C92.5388 70.4332 93.9812 66.6727 96.682 64.113C99.3942 61.5426 103.333 60.1797 108.667 60.1797C113.603 60.1797 117.333 61.3535 119.991 63.5678L119.994 63.5697L119.996 63.5716C122.416 65.5655 123.9 68.3958 124.38 72.1772H118.355ZM233.572 63.3279L233.578 63.334L233.584 63.34C235.342 64.9974 236.281 67.3503 236.281 70.5546C236.281 73.692 235.346 75.9977 233.591 77.6263L233.587 77.6292L233.584 77.6323C231.835 79.2815 229.466 80.1546 226.356 80.1546H217.924C217.103 80.1546 216.437 80.8187 216.437 81.6379V90.4111H210.816V60.7267H226.356C229.456 60.7267 231.821 61.6239 233.572 63.3279ZM314.477 72.9881C313.587 72.9518 312.815 72.9153 312.166 72.8786L314.796 77.377C315.679 77.4421 316.602 77.587 317.562 77.8082C318.618 78.0134 319.563 78.4169 320.203 79.1513C320.868 79.8504 321.157 80.7466 321.157 81.7228C321.157 83.4924 320.342 84.8849 318.8 85.7653C317.352 86.5925 315.322 86.9379 312.857 86.9379C310.529 86.9379 308.56 86.4554 307.091 85.3444C305.957 84.4872 305.218 83.4006 304.952 82.1059H298.752C299 84.5413 300.088 86.5386 302.046 88.1542C304.3 89.9595 307.839 90.9581 312.857 90.9581C318.012 90.9581 321.682 90.0603 324.035 88.4327C326.314 86.8564 327.493 84.5018 327.493 81.1758C327.493 79.5308 327.108 78.2061 326.396 77.145L326.394 77.14L326.39 77.1349C325.66 76.0228 324.668 75.2092 323.381 74.6841L323.366 74.6788L323.354 74.6732C321.969 74.0677 320.577 73.6381 319.174 73.3809C317.759 73.1213 316.21 72.989 314.522 72.989H314.5L314.477 72.9881ZM170.012 90.4111H164.391V60.7267H174.623L183.273 81.1657C183.784 82.3732 185.499 82.3749 186.012 81.1683L194.708 60.7267H204.893V90.4111H199.272V69.5559C199.272 67.9313 197.03 67.4887 196.41 68.9908L187.559 90.4111H181.725L172.874 68.9908C172.254 67.4888 170.012 67.9313 170.012 69.5559V90.4111ZM217.924 75.9975H223.501C225.584 75.9975 227.348 75.6283 228.615 74.7157C229.949 73.7547 230.564 72.316 230.564 70.6002C230.564 68.8737 229.953 67.4242 228.619 66.4537C227.352 65.5308 225.586 65.1571 223.501 65.1571H217.924C217.103 65.1571 216.437 65.8212 216.437 66.6404V74.5143C216.437 75.3335 217.103 75.9975 217.924 75.9975ZM240.803 90.4111H234.789L246.475 60.7267H253.33L265.017 90.4111H259.003L257.319 85.9474C257.101 85.3693 256.546 84.9865 255.927 84.9865H243.879C243.259 84.9865 242.705 85.3693 242.487 85.9474L240.803 90.4111ZM245.963 81.2398H253.979C255.021 81.2398 255.74 80.1993 255.369 79.2283L251.298 68.5748C250.809 67.2943 248.989 67.3037 248.513 68.5891L244.568 79.2427C244.209 80.2112 244.928 81.2398 245.963 81.2398Z" fill="white"/>
<path d="M145.989 67.6975C145.989 68.497 145.339 69.1451 144.537 69.1451C143.736 69.1451 143.086 68.497 143.086 67.6975C143.086 66.8981 143.736 66.25 144.537 66.25C145.339 66.25 145.989 66.8981 145.989 67.6975Z" fill="white"/>
<path fill-rule="evenodd" clip-rule="evenodd" d="M148.794 61.5125C146.952 58.1625 142.126 58.1625 140.283 61.5125L137.68 66.2442C137.236 67.0521 136.57 67.7168 135.76 68.16L131.015 70.7559C127.656 72.5937 127.656 77.4062 131.015 79.2442L135.76 81.84C136.57 82.2833 137.236 82.948 137.68 83.7558L140.283 88.4876C142.126 91.8375 146.952 91.8375 148.794 88.4876L151.397 83.7558C151.841 82.948 152.508 82.2833 153.318 81.84L158.062 79.2442C161.421 77.4062 161.421 72.5937 158.062 70.7559L153.318 68.16C152.508 67.7168 151.841 67.0521 151.397 66.2442L148.794 61.5125ZM146.844 64.9966C146.049 62.8544 143.011 62.8544 142.217 64.9966L140.526 69.5527C140.276 70.2261 139.744 70.7572 139.068 71.0064L134.5 72.6923C132.352 73.4849 132.352 76.5148 134.5 77.3075L139.068 78.9934C139.744 79.2426 140.276 79.7737 140.526 80.4472L142.217 85.0032C143.011 87.1454 146.049 87.1454 146.844 85.0032L148.534 80.4472C148.784 79.7737 149.317 79.2426 149.992 78.9934L154.56 77.3075C156.708 76.5148 156.708 73.4849 154.56 72.6923L149.992 71.0064C149.317 70.7572 148.784 70.2261 148.534 69.5527L146.844 64.9966Z" fill="white"/>
</svg>
