<svg width="420" height="150" viewBox="0 0 420 150" fill="none" xmlns="http://www.w3.org/2000/svg">
<path d="M199.824 76.6797C199.824 79.0461 199.388 81.0909 198.519 82.8081C197.648 84.5254 196.501 85.9387 195.076 87.0452C193.651 88.1517 192.042 88.9661 190.248 89.4883C188.458 90.0106 186.641 90.2703 184.797 90.2703H174.803V63.2425H184.493C186.386 63.2425 188.253 63.4667 190.096 63.9123C191.939 64.3578 193.578 65.0955 195.017 66.1282C196.457 67.158 197.618 68.5389 198.499 70.2709C199.383 72 199.824 74.1392 199.824 76.6856M193.086 76.6797C193.086 75.1542 192.84 73.8854 192.349 72.8822C191.857 71.876 191.199 71.0764 190.38 70.4774C189.561 69.8785 188.624 69.4536 187.58 69.1998C186.532 68.9461 185.453 68.8192 184.344 68.8192H181.125V84.6257H184.192C185.353 84.6257 186.468 84.4929 187.542 84.2244C188.613 83.9559 189.561 83.5192 190.38 82.9084C191.199 82.2977 191.857 81.4833 192.349 80.4653C192.84 79.4474 193.086 78.1874 193.086 76.6856M216.747 78.5887C216.747 77.5973 216.437 76.7446 215.82 76.0305C215.203 75.3194 214.275 74.9624 213.037 74.9624C212.432 74.9624 211.876 75.0568 211.373 75.2486C210.866 75.4404 210.428 75.7001 210.047 76.0305C209.67 76.361 209.365 76.7505 209.137 77.196C208.909 77.6416 208.783 78.1048 208.76 78.5887H216.747ZM222.464 80.9935V81.7577C222.464 82.0115 222.453 82.2534 222.426 82.4836H208.76C208.81 83.0176 208.968 83.5015 209.234 83.9353C209.5 84.369 209.839 84.7437 210.255 85.0624C210.67 85.3811 211.139 85.6289 211.656 85.806C212.174 85.983 212.71 86.0745 213.266 86.0745C214.252 86.0745 215.083 85.8886 215.764 85.5198C216.446 85.1509 217.002 84.6729 217.429 84.0887L221.745 86.8387C220.861 88.137 219.694 89.1372 218.242 89.8365C216.791 90.5358 215.106 90.8869 213.19 90.8869C211.776 90.8869 210.439 90.6656 209.175 90.2201C207.914 89.7746 206.808 89.1254 205.863 88.2727C204.918 87.42 204.172 86.3695 203.631 85.1244C203.09 83.8763 202.818 82.4511 202.818 80.8489C202.818 79.2467 203.084 77.8894 203.613 76.6295C204.143 75.3696 204.863 74.3015 205.773 73.4222C206.683 72.5429 207.753 71.8642 208.991 71.3803C210.229 70.8964 211.566 70.6545 213.002 70.6545C214.439 70.6545 215.665 70.8905 216.826 71.3597C217.988 71.8318 218.986 72.5104 219.817 73.4015C220.65 74.2926 221.3 75.3725 221.765 76.6472C222.233 77.9189 222.464 79.3706 222.464 80.9994M247.562 82.4068C247.562 83.8822 247.272 85.1244 246.69 86.1305C246.111 87.1367 245.339 87.9452 244.382 88.5559C243.422 89.1667 242.331 89.6064 241.108 89.8719C239.885 90.1404 238.627 90.2732 237.342 90.2732H226.666V63.2425H237.342C238.378 63.2425 239.437 63.3517 240.523 63.5671C241.608 63.7825 242.594 64.1513 243.475 64.6736C244.358 65.1958 245.078 65.901 245.634 66.7921C246.19 67.6832 246.468 68.8162 246.468 70.1912C246.468 71.6931 246.064 72.9353 245.257 73.9149C244.449 74.8945 243.39 75.5997 242.076 76.0335V76.1102C242.834 76.2371 243.545 76.4731 244.215 76.8154C244.885 77.1577 245.464 77.5973 245.956 78.1314C246.447 78.6654 246.839 79.291 247.129 80.0021C247.419 80.7161 247.565 81.5157 247.565 82.4068M240.218 71.0676C240.218 70.1499 239.873 69.4831 239.177 69.0641C238.483 68.6451 237.453 68.4327 236.093 68.4327H232.913V74.0064H236.394C237.606 74.0064 238.545 73.7585 239.215 73.2628C239.885 72.7671 240.218 72.0354 240.218 71.0676ZM241.09 81.7961C241.09 80.6748 240.675 79.8988 239.841 79.468C239.01 79.0343 237.898 78.8189 236.511 78.8189H232.915V85.0034H236.549C237.055 85.0034 237.576 84.9591 238.12 84.8706C238.662 84.7821 239.156 84.6228 239.598 84.3926C240.04 84.1625 240.4 83.8379 240.678 83.4189C240.956 82.9999 241.093 82.457 241.093 81.7961M262.63 81.9878H261.834C261.153 81.9878 260.465 82.0203 259.772 82.0823C259.078 82.1472 258.461 82.2682 257.917 82.4452C257.375 82.6222 256.925 82.8848 256.574 83.2271C256.22 83.5694 256.044 84.0238 256.044 84.5814C256.044 84.9385 256.126 85.2424 256.29 85.4961C256.454 85.7499 256.661 85.9535 256.916 86.1069C257.168 86.2604 257.457 86.3666 257.785 86.4315C258.113 86.4964 258.429 86.5259 258.73 86.5259C259.991 86.5259 260.957 86.1748 261.627 85.4755C262.297 84.7762 262.63 83.8261 262.63 82.6311V81.9819V81.9878ZM251.234 73.8559C252.346 72.7878 253.639 71.9852 255.114 71.4511C256.591 70.9171 258.098 70.6486 259.637 70.6486C261.176 70.6486 262.572 70.8463 263.669 71.2417C264.766 71.637 265.655 72.2478 266.337 73.074C267.019 73.9002 267.516 74.9447 267.832 76.2046C268.148 77.4645 268.306 78.9605 268.306 80.6896V90.2732H262.627V88.2491H262.513C262.033 89.0369 261.308 89.6477 260.336 90.0814C259.365 90.5122 258.312 90.7306 257.176 90.7306C256.419 90.7306 255.637 90.6273 254.83 90.4266C254.022 90.2231 253.285 89.8926 252.615 89.4352C251.945 88.9779 251.398 88.3671 250.968 87.6029C250.538 86.8387 250.324 85.8974 250.324 84.7762C250.324 83.4012 250.696 82.2947 251.442 81.4538C252.185 80.6129 253.145 79.9637 254.318 79.5064C255.491 79.049 256.796 78.7422 258.236 78.5887C259.675 78.4353 261.074 78.3586 262.437 78.3586V78.0517C262.437 77.1105 262.109 76.4171 261.454 75.9715C260.799 75.526 259.991 75.3047 259.031 75.3047C258.148 75.3047 257.296 75.4965 256.477 75.8771C255.658 76.2577 254.956 76.718 254.376 77.2521L251.234 73.853V73.8559ZM285.305 90.2732V79.8899C285.305 79.3559 285.261 78.8454 285.174 78.3645C285.086 77.8806 284.94 77.4557 284.738 77.0869C284.536 76.718 284.252 76.4259 283.883 76.2076C283.518 75.9922 283.058 75.883 282.502 75.883C281.946 75.883 281.461 75.9922 281.042 76.2076C280.627 76.423 280.282 76.7239 280.004 77.1046C279.726 77.4852 279.518 77.9248 279.378 78.4205C279.24 78.9162 279.17 79.4326 279.17 79.9667V90.2732H272.923V71.2594H278.942V73.8943H279.018C279.246 73.4871 279.541 73.0858 279.907 72.6904C280.273 72.295 280.703 71.9587 281.194 71.6783C281.686 71.398 282.224 71.1679 282.804 70.9908C283.383 70.8138 284.003 70.7223 284.659 70.7223C285.923 70.7223 286.993 70.9525 287.877 71.4098C288.761 71.8672 289.475 72.4603 290.016 73.1861C290.56 73.912 290.952 74.7441 291.189 75.6853C291.429 76.6266 291.549 77.5678 291.549 78.5091V90.2673H285.302L285.305 90.2732ZM316.5 90.2732H308.814L302.644 81.1499H302.53V90.2732H296.283V61.4102H302.53V78.9723H302.644L308.662 71.2594H316.196L308.925 79.8486L316.497 90.2703L316.5 90.2732Z" fill="white"/>
<mask id="mask0_22_15505" style="mask-type:luminance" maskUnits="userSpaceOnUse" x="103" y="47" width="50" height="56">
<path d="M103.5 103H152.347V47H103.5V103Z" fill="white"/>
</mask>
<g mask="url(#mask0_22_15505)">
<path d="M135.438 47H105.378C115.829 47 125.104 51.3994 130.933 58.2006H103.5V47.0472C104.12 47.0148 104.749 47 105.378 47H103.5V58.2006H135.438C138.551 58.2006 141.073 60.7086 141.073 63.8009C141.073 66.8931 138.584 69.3687 135.5 69.4012H136.679C137.097 71.2099 137.317 73.0836 137.317 75.0015C137.317 76.9194 137.097 78.793 136.679 80.6018H126.043V69.4012H124.165V80.6018H135.438C138.551 80.6018 141.073 83.1098 141.073 86.2021C141.073 89.2943 138.551 91.8024 135.438 91.8024H130.933C125.104 98.6036 115.829 103.003 105.378 103.003C104.746 103.003 104.12 102.988 103.5 102.956V91.8024V103.003H135.535C144.83 102.953 152.347 95.4493 152.347 86.2021C152.347 81.9001 150.72 77.9728 148.043 75.0015C150.72 72.0302 152.347 68.1059 152.347 63.8009C152.347 54.5212 144.778 47 135.438 47Z" fill="white"/>
</g>
<mask id="mask1_22_15505" style="mask-type:luminance" maskUnits="userSpaceOnUse" x="103" y="47" width="35" height="56">
<path d="M103.5 103H137.317V47H103.5V103Z" fill="white"/>
</mask>
<g mask="url(#mask1_22_15505)">
<path d="M105.378 47C104.749 47 104.12 47.0148 103.5 47.0472V58.2006H130.933C125.104 51.3994 115.829 47 105.378 47Z" fill="white"/>
<path d="M136.678 69.4004H135.499C135.479 69.4004 135.458 69.4004 135.438 69.4004H126.043V80.601H136.678C137.097 78.7922 137.316 76.9186 137.316 75.0007C137.316 73.0828 137.097 71.2091 136.678 69.4004Z" fill="white"/>
<path d="M130.933 91.7988H103.5V102.952C104.12 102.985 104.749 102.999 105.378 102.999C115.826 102.999 125.104 98.6 130.933 91.7988Z" fill="white"/>
<path d="M103.5 47C119.065 47 131.682 59.5372 131.682 75.0015C131.682 90.4657 119.065 103 103.5 103V91.7994C112.839 91.7994 120.408 84.2783 120.408 74.9985C120.408 65.7188 112.839 58.2006 103.5 58.2006V47Z" fill="white"/>
</g>
</svg>
