<svg width="420" height="150" viewBox="0 0 420 150" fill="none" xmlns="http://www.w3.org/2000/svg">
<mask id="mask0_22_15506" style="mask-type:luminance" maskUnits="userSpaceOnUse" x="52" y="45" width="316" height="60">
<path d="M367.567 45H52.4316V105H367.567V45Z" fill="white"/>
</mask>
<g mask="url(#mask0_22_15506)">
<path d="M131.332 94.7833C129.873 94.7833 128.709 94.3735 127.837 93.5486C126.966 92.7265 126.531 91.6339 126.531 90.2707V70.6081C126.531 69.245 126.931 68.1764 127.73 67.4024C128.529 66.6259 129.589 66.2402 130.906 66.2402H137.329C140.435 66.2402 143.069 66.8642 145.234 68.1068C147.398 69.3521 149.056 71.0447 150.209 73.1818C151.362 75.3215 151.939 77.7506 151.939 80.4769C151.939 83.2033 151.349 85.7876 150.174 87.9461C148.997 90.1073 147.398 91.7864 145.376 92.9863C143.351 94.1834 141.092 94.7833 138.601 94.7833H131.332ZM134.65 89.1458H137.402C140.084 89.1458 142.131 88.3826 143.541 86.8561C144.952 85.3297 145.633 83.2033 145.588 80.4769C145.54 77.6569 144.813 75.5198 143.399 74.0629C141.988 72.6059 139.963 71.8775 137.329 71.8775H134.647C133.47 71.8775 132.883 72.4667 132.883 73.6397V87.3838C132.883 88.5593 133.47 89.1458 134.647 89.1458H134.65Z" fill="white"/>
<path d="M157.941 95.2738C157.048 95.2738 156.294 95.0141 155.683 94.4999C155.071 93.983 154.766 93.3269 154.766 92.5261V76.7387C154.766 75.9889 155.058 75.3407 155.648 74.7998C156.236 74.2615 157 73.9883 157.941 73.9883C158.789 73.9883 159.481 74.2348 160.023 74.7275C160.562 75.2203 160.881 75.8201 160.975 76.5245C161.492 75.7264 162.198 75.0436 163.094 74.4811C163.987 73.9187 164.928 73.6348 165.918 73.6348C166.529 73.6348 167.117 73.7045 167.683 73.8464C168.34 74.0339 168.882 74.3981 169.305 74.939C169.729 75.4801 169.941 76.1014 169.941 76.8058C169.941 77.7913 169.625 78.6028 168.989 79.2374C168.353 79.8721 167.613 80.0944 166.766 79.9069C166.154 79.765 165.543 79.6954 164.931 79.6954C163.847 79.6954 162.954 80.0729 162.249 80.8228C161.543 81.5753 161.12 83.1019 160.978 85.4024V92.4511C160.978 93.2519 160.682 93.9214 160.095 94.4597C159.505 95.0006 158.789 95.2712 157.941 95.2712V95.2738Z" fill="white"/>
<path d="M179.821 95.4857C176.666 95.4857 174.116 94.4869 172.163 92.4916C170.211 90.4964 169.234 87.8291 169.234 84.4922C169.234 81.1553 170.187 78.5147 172.094 76.565C173.998 74.6153 176.506 73.6406 179.612 73.6406C181.822 73.6406 183.753 74.4145 185.4 75.9652C185.587 75.4027 185.941 74.9314 186.459 74.5565C186.977 74.1815 187.588 73.9913 188.294 73.9913C189.235 73.9913 189.999 74.2619 190.587 74.8028C191.174 75.3439 191.469 75.9892 191.469 76.7417V92.7407C191.469 93.5414 191.174 94.1975 190.587 94.7144C189.997 95.2313 189.232 95.4884 188.294 95.4884C186.741 95.4884 185.775 94.8055 185.4 93.4451C183.892 94.8082 182.036 95.4884 179.823 95.4884L179.821 95.4857ZM180.314 89.7787C181.819 89.7787 183.02 89.2753 183.914 88.2629C184.807 87.2533 185.255 85.9973 185.255 84.4922C185.255 82.9871 184.807 81.6962 183.914 80.7562C183.02 79.8163 181.819 79.3475 180.314 79.3475C178.81 79.3475 177.667 79.819 176.75 80.7562C175.832 81.6962 175.374 82.9415 175.374 84.4922C175.374 86.0428 175.832 87.2533 176.75 88.2629C177.667 89.2726 178.855 89.7787 180.314 89.7787Z" fill="white"/>
<path d="M203.892 105.004C202.576 105.004 201.304 104.873 200.081 104.616C198.858 104.356 197.753 103.97 196.763 103.454C195.634 102.843 195.068 101.903 195.068 100.634C195.068 99.8329 195.35 99.1418 195.916 98.5553C196.479 97.9661 197.139 97.6742 197.893 97.6742C198.504 97.6742 199.046 97.8161 199.515 98.0974C200.266 98.5205 201.055 98.8258 201.881 99.0133C202.705 99.2008 203.514 99.2945 204.316 99.2945C206.106 99.2945 207.432 98.8955 208.305 98.0974C209.174 97.2967 209.61 96.2414 209.61 94.9265V93.3062C208.104 94.7632 206.247 95.4916 204.034 95.4916C200.881 95.4916 198.354 94.4927 196.447 92.4976C194.543 90.5023 193.588 87.835 193.588 84.4981C193.588 81.1612 194.516 78.5206 196.374 76.5709C198.233 74.6212 200.714 73.6465 203.82 73.6465C206.079 73.6465 208.031 74.5168 209.678 76.2548C209.82 75.5987 210.161 75.0578 210.703 74.6347C211.241 74.2115 211.911 73.9999 212.713 73.9999C213.656 73.9999 214.409 74.2811 214.972 74.8462C215.536 75.4112 215.821 76.1156 215.821 76.9592V95.0711C215.821 98.0759 214.771 100.486 212.679 102.294C210.585 104.102 207.656 105.007 203.892 105.007V105.004ZM204.529 89.782C205.939 89.782 207.079 89.2784 207.951 88.2661C208.819 87.2564 209.257 86.0005 209.257 84.4954C209.257 82.9903 208.822 81.6994 207.951 80.7595C207.079 79.8194 205.939 79.3507 204.529 79.3507C203.117 79.3507 201.905 79.8221 201.033 80.7595C200.162 81.6994 199.727 82.9448 199.727 84.4954C199.727 86.0459 200.162 87.2564 201.033 88.2661C201.902 89.2757 203.069 89.782 204.529 89.782Z" fill="white"/>
<path d="M228.736 95.4889C226.711 95.4889 224.856 95.0176 223.16 94.0802C221.465 93.1403 220.113 91.8361 219.102 90.1702C218.091 88.5017 217.584 86.6111 217.584 84.4981C217.584 82.385 218.088 80.4461 219.102 78.8258C220.113 77.2055 221.468 75.9362 223.16 75.0203C224.856 74.1044 226.711 73.6465 228.736 73.6465C230.762 73.6465 232.676 74.1044 234.347 75.0203C236.018 75.9362 237.345 77.2055 238.336 78.8258C239.322 80.4461 239.818 82.3396 239.818 84.4981C239.818 86.6566 239.325 88.5044 238.336 90.1702C237.348 91.8386 236.018 93.1429 234.347 94.0802C232.676 95.0203 230.806 95.4889 228.736 95.4889ZM228.736 89.782C230.195 89.782 231.384 89.2784 232.301 88.2661C233.218 87.2564 233.677 86.0005 233.677 84.4954C233.677 82.9903 233.218 81.6994 232.301 80.7595C231.384 79.8194 230.195 79.3507 228.736 79.3507C227.276 79.3507 226.134 79.8221 225.172 80.7595C224.206 81.6994 223.725 82.9448 223.725 84.4954C223.725 86.0459 224.208 87.2564 225.172 88.2661C226.134 89.2757 227.326 89.782 228.736 89.782Z" fill="white"/>
<path d="M260.005 95.4857C259.113 95.4857 258.37 95.2259 257.782 94.7117C257.191 94.195 256.899 93.5387 256.899 92.738V84.1414C256.899 82.4033 256.511 81.158 255.736 80.4055C254.961 79.6555 254.006 79.2779 252.876 79.2779C251.747 79.2779 250.723 79.6555 249.948 80.4055C249.17 81.158 248.688 82.0256 248.499 83.0138V92.4568C248.499 93.2576 248.204 93.9271 247.617 94.4654C247.027 95.0063 246.31 95.2769 245.463 95.2769C244.57 95.2769 243.816 95.0171 243.204 94.5029C242.593 93.986 242.287 93.3299 242.287 92.5291V76.7417C242.287 75.9919 242.579 75.3439 243.17 74.8028C243.758 74.2645 244.522 73.9913 245.463 73.9913C246.214 73.9913 246.85 74.1922 247.367 74.5913C247.886 74.9903 248.237 75.4964 248.427 76.1071C249.698 74.4628 251.627 73.6406 254.215 73.6406C256.803 73.6406 258.989 74.4145 260.639 75.9652C262.285 77.5157 263.109 79.9823 263.109 83.3647V92.8799C263.109 93.6325 262.814 94.2538 262.227 94.7467C261.636 95.2394 260.897 95.4857 260.005 95.4857Z" fill="white"/>
<path d="M276.514 95.4863C274.35 95.4863 272.325 95.1221 270.445 94.3935C268.562 93.6651 267.081 92.6903 265.998 91.4691C265.48 90.9041 265.223 90.248 265.223 89.4954C265.223 88.6973 265.528 87.9929 266.14 87.3824C266.752 86.7717 267.482 86.4665 268.329 86.4665C269.128 86.4665 269.813 86.7476 270.375 87.3128C271.175 88.0653 272.185 88.6518 273.412 89.0748C274.635 89.498 275.834 89.7096 277.011 89.7096C278.189 89.7096 279.294 89.4392 280.187 88.8981C281.079 88.3598 281.527 87.5001 281.527 86.3271C281.527 85.3416 281.115 84.5784 280.293 84.0374C279.47 83.4992 278.094 83.0625 276.165 82.7331C272.73 82.1681 270.142 81.2174 268.4 79.8783C266.66 78.5393 265.789 76.6485 265.789 74.2061C265.789 71.5763 266.8 69.4739 268.825 67.8992C270.847 66.3245 273.505 65.5371 276.801 65.5371C280.099 65.5371 282.896 66.4076 284.918 68.1456C285.717 68.8044 286.117 69.5784 286.117 70.4702C286.117 71.2227 285.822 71.8682 285.234 72.4091C284.643 72.9501 283.952 73.2206 283.153 73.2206C282.542 73.2206 281.975 73.0572 281.458 72.7278C279.668 71.6003 277.789 71.0352 275.811 71.0352C274.635 71.0352 273.647 71.2709 272.848 71.7396C272.049 72.2109 271.649 72.9153 271.649 73.8527C271.649 74.8382 272.271 75.6149 273.518 76.1772C274.765 76.7423 276.589 77.2592 278.988 77.7278C280.304 77.9634 281.611 78.3732 282.906 78.9624C284.198 79.5516 285.282 80.4327 286.151 81.6057C287.021 82.7814 287.457 84.3776 287.457 86.3969C287.457 89.0748 286.433 91.2602 284.387 92.9501C282.34 94.6427 279.716 95.4863 276.517 95.4863H276.514Z" fill="white"/>
<path d="M296.419 95.4857C295.526 95.4857 294.713 95.2259 293.985 94.7117C293.255 94.195 292.772 93.421 292.538 92.3872L288.303 77.588C288.256 77.4005 288.22 77.2345 288.199 77.0953C288.175 76.9534 288.164 76.814 288.164 76.6721C288.164 75.8258 288.47 75.1108 289.081 74.5216C289.693 73.9351 290.446 73.6406 291.339 73.6406C292.892 73.6406 293.833 74.3449 294.163 75.7535L296.351 86.1124C296.494 86.6293 296.707 86.8864 296.989 86.8864C297.318 86.8864 297.554 86.6507 297.693 86.1821L300.73 77.2319C301.01 76.4338 301.459 75.8473 302.07 75.4697C302.682 75.0947 303.317 74.9047 303.975 74.9047C304.632 74.9047 305.281 75.092 305.916 75.4697C306.552 75.8473 306.963 76.4338 307.153 77.2319L310.117 86.1821C310.259 86.6507 310.47 86.8864 310.752 86.8864C311.034 86.8864 311.245 86.6293 311.388 86.1124L313.576 75.7535C313.906 74.3449 314.849 73.6406 316.402 73.6406C317.294 73.6406 318.048 73.9351 318.659 74.5216C319.271 75.1108 319.577 75.8258 319.577 76.6721C319.577 76.814 319.566 76.9534 319.542 77.0953C319.518 77.2372 319.482 77.4005 319.434 77.588L315.2 92.3872C314.918 93.421 314.411 94.1975 313.681 94.7117C312.951 95.2286 312.139 95.4857 311.245 95.4857C310.446 95.4857 309.692 95.2394 308.988 94.7467C308.282 94.2538 307.741 93.4906 307.365 92.4568L304.54 84.1414C304.398 83.6245 304.187 83.3674 303.905 83.3674C303.575 83.3674 303.341 83.6272 303.2 84.1414L300.375 92.4568C300.045 93.4906 299.517 94.2538 298.787 94.7467C298.057 95.2394 297.269 95.4857 296.422 95.4857H296.419Z" fill="white"/>
<path d="M330.511 95.4857C327.356 95.4857 324.806 94.4869 322.853 92.4916C320.901 90.4964 319.924 87.8291 319.924 84.4922C319.924 81.1553 320.876 78.5147 322.784 76.565C324.688 74.6153 327.195 73.6406 330.301 73.6406C332.511 73.6406 334.443 74.4145 336.089 75.9652C336.278 75.4027 336.631 74.9314 337.149 74.5565C337.666 74.1815 338.277 73.9913 338.983 73.9913C339.925 73.9913 340.689 74.2619 341.277 74.8028C341.864 75.3439 342.16 75.9892 342.16 76.7417V92.7407C342.16 93.5414 341.864 94.1975 341.277 94.7144C340.686 95.2313 339.922 95.4884 338.983 95.4884C337.43 95.4884 336.465 94.8055 336.089 93.4451C334.582 94.8082 332.727 95.4884 330.513 95.4884L330.511 95.4857ZM331.004 89.7787C332.509 89.7787 333.71 89.2753 334.603 88.2629C335.497 87.2533 335.945 85.9973 335.945 84.4922C335.945 82.9871 335.497 81.6962 334.603 80.7562C333.71 79.8163 332.509 79.3475 331.004 79.3475C329.499 79.3475 328.357 79.819 327.44 80.7562C326.522 81.6962 326.064 82.9415 326.064 84.4922C326.064 86.0428 326.522 87.2533 327.44 88.2629C328.357 89.2726 329.544 89.7787 331.004 89.7787Z" fill="white"/>
<path d="M357.122 95.4884C355.05 95.4884 353.31 94.8538 351.899 93.5843V102.181C351.899 102.979 351.604 103.649 351.016 104.19C350.426 104.728 349.711 105.001 348.862 105.001C347.969 105.001 347.216 104.741 346.605 104.227C345.993 103.71 345.688 103.051 345.688 102.253V76.7417C345.688 75.9919 345.98 75.3439 346.569 74.8028C347.157 74.2645 347.921 73.9913 348.862 73.9913C349.568 73.9913 350.18 74.1788 350.697 74.5565C351.214 74.9341 351.567 75.4027 351.757 75.9652C353.355 74.4145 355.214 73.6406 357.333 73.6406C360.439 73.6406 362.92 74.6153 364.779 76.565C366.637 78.5147 367.565 81.158 367.565 84.4922C367.565 87.8264 366.624 90.4937 364.741 92.4916C362.858 94.4896 360.318 95.4857 357.119 95.4857L357.122 95.4884ZM356.627 89.7814C358.087 89.7814 359.25 89.278 360.123 88.2656C360.992 87.256 361.428 86 361.428 84.4949C361.428 82.9898 360.994 81.6989 360.123 80.7589C359.25 79.819 358.087 79.3502 356.627 79.3502C355.169 79.3502 354.074 79.8215 353.205 80.7589C352.334 81.6989 351.899 82.9442 351.899 84.4949C351.899 86.0455 352.334 87.256 353.205 88.2656C354.074 89.2753 355.217 89.7814 356.627 89.7814Z" fill="white"/>
<path d="M92.6991 51.4675C92.9055 51.4862 91.9319 49.309 91.814 49.0947C91.3634 48.2806 90.8082 47.6485 90.1751 47.1504C89.4805 46.6041 88.6892 46.2211 87.839 45.9399C87.6888 45.889 87.5279 46.0819 87.5575 46.272C87.8498 48.235 87.3911 50.2275 87.1953 51.1381C87.1953 51.1381 90.2502 51.2532 92.7017 51.4675H92.6991Z" fill="white"/>
<path d="M92.0253 51.6226C91.6336 50.2327 90.9792 48.9981 90.1317 48.0527C89.6569 47.5225 88.9784 46.9494 88.3079 46.6762C88.3696 47.7715 88.2515 50.2059 87.8063 51.4887C87.6694 51.8851 87.235 52.094 86.8381 51.9547C86.441 51.8181 86.2319 51.3843 86.3713 50.9879C86.7656 49.8578 86.8702 47.1877 86.7737 46.5476L86.7683 46.5209C86.7173 46.1941 86.6128 45.5139 87.1572 45.1443C87.3503 45.0131 87.5408 45.0051 87.5943 45.0024C87.6721 44.997 87.7393 45.0024 87.8009 45.0024C89.3942 45.1256 90.7566 46.4673 91.2662 47.0377C92.2667 48.1545 93.0364 49.598 93.4897 51.2102C93.6024 51.6146 93.3663 52.0324 92.964 52.1449C92.8943 52.1636 92.8273 52.1743 92.7576 52.1743C92.425 52.1743 92.1192 51.9547 92.0253 51.62V51.6226ZM87.6642 46.5182H87.6721H87.6642Z" fill="#0D1B3A"/>
<path d="M97.9787 104.721C101.323 104.721 103.018 104.633 104.019 104.274C106.146 103.508 107.543 101.004 107.205 98.5727C106.873 96.1944 105.507 94.3626 103.458 93.5459C101.302 92.6888 98.6921 93.104 96.8092 94.6064L97.9465 96.0284C99.3278 94.9277 101.227 94.617 102.782 95.2358C104.225 95.8115 105.156 97.0836 105.397 98.8217C105.615 100.378 104.7 102.089 103.399 102.558C102.326 102.943 99.1695 102.917 93.4378 102.871C90.93 102.849 87.808 102.825 84.0449 102.825V104.646C87.8027 104.646 90.9192 104.673 93.4243 104.692C95.2134 104.708 96.7154 104.719 97.9814 104.719L97.9787 104.721Z" fill="white"/>
<path d="M104.375 94.4183C105.66 94.0968 106.808 93.2667 107.484 92.115C108.291 90.7385 108.291 89.1665 107.484 87.8034C106.041 85.3662 102.584 83.9576 99.7755 84.662L100.221 86.4294C102.23 85.926 104.89 87.0026 105.915 88.73C106.545 89.7959 106.183 90.7305 105.912 91.1939C105.344 92.1633 104.246 92.7713 103.117 92.7444C101.674 92.7096 100.296 91.8981 98.96 91.1108C98.7589 90.993 98.5577 90.8751 98.3592 90.7599L97.4473 92.3373C97.6405 92.4498 97.8363 92.565 98.032 92.6802C99.4965 93.5426 101.154 94.52 103.072 94.5656C103.512 94.5762 103.951 94.5254 104.375 94.4183Z" fill="white"/>
<path d="M88.6988 94.959C88.7256 94.959 88.7497 94.959 88.7766 94.959C91.2629 94.959 93.1055 92.9291 93.2128 90.5295C93.2584 89.5332 92.8989 88.6013 92.2954 87.8514C92.8721 86.1213 93.2798 83.3307 93.4944 81.5498C93.6848 79.9938 93.6231 78.8529 93.6178 75.966C93.6178 75.0554 96.3241 75.3822 97.8716 76.4213C100.932 78.4727 102.455 83.3522 102.965 86.8122C103.552 90.7973 102.657 94.9296 100.315 98.1755C98.1614 101.162 94.409 102.98 90.8149 103.521C90.3 103.599 89.7797 103.647 89.254 103.676C89.9432 102.479 90.2731 101.073 90.3349 99.7019C90.4073 98.0897 89.71 96.29 88.6934 94.959H88.6988Z" fill="white"/>
<path fill-rule="evenodd" clip-rule="evenodd" d="M102.309 61.5524C101.96 61.7211 101.646 61.9808 101.362 62.2889L101.365 62.2916C100.895 62.7964 100.5 63.4305 100.141 64.0057C100.019 64.2025 99.9005 64.3924 99.7849 64.5678C98.13 67.0799 96.5128 69.3135 93.3586 69.849C92.8312 69.9383 92.2992 69.9954 91.7674 70.0525C91.1498 70.1189 90.5325 70.1852 89.9228 70.3017C86.1839 71.0195 87.5706 75.5106 90.4298 76.4774C92.1302 77.0532 93.9863 77.1924 95.7618 77.1014C99.4362 76.9085 103.033 75.3365 105.289 72.1683C105.812 71.4318 106.152 70.3928 106.303 69.8705C106.354 69.6857 106.268 69.4902 106.101 69.4125L104.189 68.6787C104.913 68.2047 106.847 66.0998 106.608 64.2009C106.512 63.4431 106.056 62.4683 105.525 61.962C104.683 61.1559 103.333 61.0515 102.309 61.5524ZM103.304 63.3483C103.248 63.3814 103.191 63.415 103.133 63.4465C102.769 63.6473 102.578 64.0007 102.771 64.3516C102.965 64.6997 103.418 64.823 103.785 64.6222C104.153 64.4213 104.236 63.6553 104.043 63.3044C103.88 63.0086 103.606 63.17 103.304 63.3483Z" fill="white"/>
<path d="M101.218 60.0541C100.534 54.8345 95.9257 51.4789 90.8618 51.0075C87.5225 50.729 84.0653 51.5164 81.3107 53.4526C78.5562 55.3648 76.6546 58.3321 76.0834 61.6234C75.7534 63.1981 75.6488 64.8265 75.8312 66.4012C76.0484 64.8265 76.4106 63.316 76.9469 61.8618C78.0923 58.2893 80.7476 55.2978 84.2209 53.8597C90.6527 51.1923 98.5703 53.1339 101.215 60.0541H101.218Z" fill="white"/>
<path d="M96.8084 78.6186C96.8459 78.6186 96.8808 78.6186 96.9183 78.6133C101.467 78.1071 106.756 75.4825 107.961 69.6363C108.084 69.0364 107.773 68.4981 107.038 68.0295C107.805 66.9609 108.733 65.2147 108.272 63.4687C107.974 62.3493 107.357 61.3182 106.534 60.5629C105.59 59.6952 104.431 59.2668 103.272 59.3551C101.934 59.4569 101.119 59.9684 100.748 60.2629C100.325 60.6058 100.258 61.2271 100.598 61.6503C100.942 62.0734 101.564 62.1403 101.988 61.8003C102.106 61.7038 102.559 61.3878 103.42 61.3236C104.793 61.219 105.992 62.5902 106.359 63.9775C106.721 65.3406 105.338 67.1136 104.772 67.6813L103.688 68.7739L105.131 69.3042C105.407 69.406 105.716 69.5506 105.925 69.6684C104.763 74.181 100.44 76.2378 96.6984 76.6555C96.1566 76.7172 95.765 77.2045 95.8267 77.7456C95.8831 78.2491 96.3121 78.624 96.8084 78.624V78.6186Z" fill="white"/>
<path d="M77.2615 104.879C78.1816 104.879 79.0988 104.871 80.0564 104.857C84.9807 104.782 88.9931 104.748 90.7071 104.731C91.3007 104.726 91.6324 104.715 91.7021 104.699C96.8063 103.58 101.492 99.4611 103.096 94.6833C104.421 90.7359 104.976 84.3004 100.095 76.0653L98.3941 77.0695C100.88 81.2607 103.388 87.6078 101.224 94.0567C99.8397 98.181 95.7977 101.743 91.3749 102.75C91.2542 102.75 91.021 102.752 90.691 102.755C88.9744 102.771 84.9592 102.806 80.0268 102.881C76.658 102.932 73.7479 102.894 69.6389 102.75C69.1026 102.731 67.1472 101.952 65.0632 100.243C63.7972 99.204 62.8156 98.031 62.3864 97.3105C62.837 97.3722 63.4432 97.4524 64.154 97.4391C66.8388 97.3829 68.7672 96.0546 70.3175 94.9887C72.8923 93.2157 74.9361 90.8134 76.5642 87.6453C78.1117 84.6378 78.8627 81.4161 78.8011 78.0711C78.777 76.7508 78.5758 75.7144 78.1762 73.6522C77.7389 71.4054 77.3044 70.0368 76.9557 68.9361C76.5508 67.6614 76.2825 66.8178 76.2182 65.2993C76.1136 62.7846 76.6742 60.9019 76.9209 60.2082C77.4198 58.8049 78.4363 56.7642 80.4425 55.002C81.2525 54.2924 83.4895 52.5837 86.7884 52.0481C89.669 51.5821 91.898 52.2329 92.7374 52.4766C93.4241 52.6775 94.8564 53.0952 96.4066 54.1638C97.0343 54.5977 98.6382 55.8349 99.9229 57.9587C100.457 58.8424 100.886 59.7905 101.194 60.7786L103.08 60.1894C102.723 59.0513 102.23 57.956 101.615 56.9383C100.186 54.5736 98.4424 53.1676 97.5304 52.5382C95.7173 51.2902 94.0813 50.8108 93.2954 50.5832C92.3378 50.3047 89.7951 49.5628 86.4747 50.1011C82.8055 50.6957 80.3058 52.498 79.1417 53.5211C76.819 55.5618 75.6416 57.9239 75.0622 59.5468C74.7778 60.3475 74.1261 62.5221 74.2468 65.3823C74.3219 67.1632 74.6545 68.2104 75.0755 69.5334C75.4109 70.586 75.8265 71.8954 76.2397 74.0272C76.6178 75.9795 76.8082 76.957 76.8297 78.1086C76.886 81.1242 76.2074 84.0299 74.8101 86.7454C73.3349 89.6191 71.4976 91.7831 69.1991 93.3657C67.7292 94.3781 66.2058 95.4252 64.1164 95.4681C63.5344 95.4815 63.0436 95.4118 62.6117 95.3502C61.8768 95.2485 60.9595 95.1199 60.4312 95.8992C59.6775 97.0106 60.8093 98.5371 61.1795 99.0406C61.8473 99.9432 62.8317 100.964 63.8133 101.77C66.1119 103.658 68.4508 104.686 69.5746 104.726C72.5544 104.833 74.912 104.882 77.2696 104.882L77.2615 104.879Z" fill="white"/>
<path d="M86.9371 93.5465C88.0072 93.7661 89.0049 94.508 90.1556 94.2669C91.4699 93.9911 92.768 92.9199 92.5213 91.214C92.1645 88.7688 89.1096 87.5262 87.3609 87.1754C86.8672 87.0762 86.5454 86.5968 86.6446 86.1041C86.7439 85.6113 87.224 85.29 87.7175 85.389C88.557 85.5578 90.1932 85.9943 91.7031 87.0468C93.1971 88.0886 94.1064 89.4383 94.3263 90.9515C94.6804 93.3725 93.0819 95.5176 90.5311 96.0506C90.2334 96.1121 89.933 96.1416 89.6353 96.1416C88.4042 96.1416 87.2026 95.6435 86.1699 94.9659C86.5722 94.5134 86.7305 94.1304 86.9371 93.5465Z" fill="white"/>
<path d="M53.7996 81.3391C59.6493 64.8821 71.912 64.9277 71.912 64.9277C71.0484 67.0246 70.8445 68.6234 71.0886 69.8956V69.9035C71.1021 69.9706 71.1154 70.0348 71.1314 70.1017C71.1583 70.2169 71.1905 70.3321 71.2254 70.4419C71.2442 70.4981 71.2629 70.5517 71.2816 70.6079C71.2978 70.6588 71.3193 70.7069 71.338 70.7552C71.3407 70.7659 71.3461 70.7767 71.3515 70.7873C71.3702 70.8382 71.3917 70.8865 71.4158 70.9373C71.4372 70.9909 71.4614 71.0444 71.4909 71.0953C71.515 71.1515 71.5446 71.2051 71.5741 71.2559C71.5741 71.2559 71.5741 71.2586 71.5793 71.2613C71.8959 71.8505 72.333 72.3566 72.8508 72.812C72.9232 72.8762 72.9983 72.9431 73.0761 73.0048C73.3068 73.195 73.5508 73.3771 73.8056 73.5511C73.8968 73.6154 73.9906 73.6769 74.0871 73.7386C74.2535 73.8484 74.4279 73.9555 74.6022 74.0626C74.6933 74.1188 74.7846 74.1724 74.8785 74.2261C74.9723 74.2822 75.0661 74.3359 75.1601 74.392C75.5893 74.6384 76.0318 74.8822 76.477 75.1285C77.6652 75.7873 78.8828 76.481 79.9342 77.3674C80.3527 77.7209 80.747 78.1066 81.101 78.5324C82.0022 79.6117 82.6594 80.956 82.8766 82.7317L80.924 84.143C79.6259 80.648 76.4314 78.6074 72.3653 77.2282C71.3166 80.7097 73.1216 86.6603 73.0867 86.7247C69.0555 82.046 68.5513 74.443 68.5513 74.443C65.3086 79.36 64.7748 90.2785 64.7748 90.2785C61.9264 80.4794 67.0707 71.6336 67.0707 71.6336L66.6094 70.3963C60.8267 71.8961 53.7969 81.331 53.7969 81.331L53.7996 81.3391Z" fill="white"/>
<path d="M52.4343 82.4506C52.4585 82.3731 53.9256 82.0677 54.336 82.0704C55.323 82.0704 56.2939 82.3543 57.1871 82.7613C59.8451 83.9718 61.921 86.2669 63.5866 88.6023C63.9165 89.0442 64.1418 89.3628 64.6487 90.4716C64.9733 90.0055 66.5477 87.2659 68.0792 86.6659C69.2916 86.1892 70.7264 86.2965 72.3465 86.9767C72.4108 86.9928 72.8185 87.1828 72.8185 87.1828C72.8185 87.1828 74.8676 84.1326 75.9084 83.6934C77.0455 83.214 78.4484 83.3746 80.0844 84.1674L80.2427 84.3682C80.3687 84.7591 80.7979 84.9654 81.1815 84.8262C81.3638 84.7591 81.5087 84.628 81.5891 84.4539C81.6695 84.2799 81.6776 84.0843 81.6105 83.9049C80.366 80.5546 77.5042 78.222 72.604 76.5589C72.4189 76.4973 72.215 76.5106 72.0407 76.599C71.8664 76.6875 71.7349 76.8454 71.6787 77.0302C71.0939 78.9691 71.2065 81.1251 71.4936 82.8792C69.5972 78.8406 69.2781 74.4513 69.2754 74.4057C69.2539 74.0977 69.0394 73.8379 68.7363 73.7575C68.4333 73.68 68.1168 73.8004 67.9477 74.0575C66.1856 76.7302 65.1986 80.9857 64.6487 84.6039C64.512 77.5792 67.6635 72.0624 67.6983 72.0034C67.8056 71.8186 67.8244 71.5963 67.7493 71.3955L67.288 70.161C67.1565 69.8101 66.781 69.6226 66.419 69.7164C64.4369 70.2333 61.1432 71.9365 56.4709 77.0329C59.2925 71.733 62.8088 69.0013 65.3381 67.6275C67.6394 66.3795 69.6777 65.9188 70.8364 65.7501C68.8516 71.733 72.4243 73.7121 75.8815 75.627C78.7299 77.2042 81.6749 78.8353 82.1605 82.8256C82.2087 83.2167 82.568 83.5005 82.965 83.4523C83.1582 83.4309 83.3298 83.3344 83.4478 83.1819C83.5658 83.0319 83.6194 82.8444 83.5953 82.6542C83.0186 77.9355 79.599 76.042 76.5816 74.3709C72.9071 72.3355 70.2517 70.8652 72.5799 65.2038C72.671 64.9815 72.6442 64.7298 72.51 64.5316C72.376 64.3333 72.1507 64.2129 71.9119 64.2129C71.7108 64.2129 68.5727 64.2477 64.7024 66.3339C63.9916 66.7168 63.297 67.1293 62.6291 67.5792C60.529 68.9905 58.7025 70.7688 57.2058 72.8068C55.6314 74.9493 54.5157 77.3542 53.5045 79.8021C53.1397 80.6859 52.7884 81.5722 52.4316 82.456L52.4343 82.4506ZM72.8803 78.1791C75.7501 79.245 77.7617 80.5653 79.0517 82.2391C77.6839 81.8616 76.4368 81.907 75.329 82.3756C74.3929 82.7721 73.7064 83.4121 73.2101 84.0576C72.8052 82.3756 72.4859 80.1717 72.8803 78.1764V78.1791ZM65.8745 86.35C66.2339 83.5113 66.9071 79.7002 68.1329 76.8106C68.5084 78.9826 69.3184 82.2177 71.0135 85.0672C69.7609 84.8262 68.5941 84.9172 67.5321 85.3377C66.8696 85.6002 66.3224 85.9644 65.8745 86.3527V86.35ZM55.5 80.3617C57.5706 77.8497 62.1624 72.7212 66.1749 71.2938L66.2822 71.583C65.5392 72.9702 62.8517 78.5193 63.2219 85.3725C60.4137 81.6526 57.3963 80.6136 55.5 80.3644V80.3617Z" fill="white"/>
<path d="M71.845 46.0845C72.7595 45.905 73.2798 46.7808 73.5293 47.2012C73.5508 47.2387 73.5723 47.2735 73.5883 47.2976C74.7443 49.0464 75.9137 49.9918 77.4962 50.4578C78.8211 50.8488 80.2186 51.13 81.5677 51.4005L82.0075 51.4889C83.032 51.6951 84.3303 51.7111 85.4192 52.1664C85.2047 52.2253 84.046 52.8118 83.7697 52.9377C83.3942 53.1118 83.0214 53.2832 82.6727 53.4974C82.3241 53.4144 81.978 53.3421 81.6455 53.2725L81.2082 53.1841C79.819 52.9056 78.3813 52.6163 76.9786 52.2039C75.1895 51.6763 73.7895 50.6613 72.5182 48.9473C72.5423 49.3732 72.5933 49.8981 72.6871 50.5194C73.0439 52.9136 73.8485 54.6115 75.2218 55.8675C76.4824 57.0191 77.6035 57.4128 78.3653 57.6003C77.9682 58.01 77.3514 59.1214 77.3299 59.1991C76.4206 58.9072 75.2565 58.3689 73.9906 57.2119C72.2929 55.6586 71.3058 53.6179 70.8848 50.7872C70.4288 47.7127 70.7158 46.3067 71.8476 46.0845H71.845Z" fill="white"/>
<path d="M82.0512 102.75C85.6265 103.408 87.8445 102.468 87.8767 102.452C89.1293 101.898 89.8696 100.382 89.6335 98.8475C89.3922 97.2836 88.4427 96.0596 87.0238 95.4945C85.5164 94.8947 83.7758 95.1464 82.475 96.1506C82.0754 96.4587 81.504 96.3864 81.1956 95.9873C80.8871 95.591 80.9595 95.0178 81.3592 94.7099C83.1669 93.3119 85.5969 92.9637 87.7024 93.8019C89.7355 94.6134 91.098 96.3489 91.4386 98.5691C91.8035 100.942 90.642 103.221 88.6171 104.115C88.499 104.166 86.9997 104.806 84.5322 104.806C83.4781 104.806 82.247 104.688 80.8711 104.362C81.3752 103.923 81.7775 103.371 82.0538 102.747L82.0512 102.75Z" fill="white"/>
<path d="M92.8067 68.0648C94.4375 68.0648 95.7596 66.5626 95.7596 64.7092C95.7596 62.8559 94.4375 61.3535 92.8067 61.3535C91.1758 61.3535 89.8535 62.8559 89.8535 64.7092C89.8535 66.5626 91.1758 68.0648 92.8067 68.0648Z" fill="white"/>
<path d="M93.7961 64.4065C94.1753 64.4065 94.4826 64.0994 94.4826 63.7208C94.4826 63.3422 94.1753 63.0352 93.7961 63.0352C93.4168 63.0352 93.1094 63.3422 93.1094 63.7208C93.1094 64.0994 93.4168 64.4065 93.7961 64.4065Z" fill="white"/>
<path d="M106.252 68.5147C107.499 68.6862 108.792 68.9299 109.934 69.4762C110.417 69.7065 110.91 70.0119 111.208 70.4698C111.503 70.9251 111.487 71.5303 111.117 71.9401C110.707 72.3954 109.926 72.5319 109.374 72.7408L110.937 73.3434C111.01 73.3729 112.52 73.9432 114.298 73.7317C114.582 73.6969 114.875 73.6434 115.167 73.5657C117.828 72.8453 119.338 70.2582 119.319 68.0113C119.298 65.7643 117.779 63.0006 115.065 62.5668C112.724 62.1918 109.258 63.5656 109.258 63.5656C109.285 63.555 109.325 63.5604 109.355 63.5577C109.974 63.5362 110.814 63.7639 111.133 64.3369C111.67 65.3011 111.004 66.3135 110.189 66.8463C109.414 67.3552 108.497 67.5988 107.612 67.8399C106.718 68.0836 105.796 68.2738 104.873 68.3755C105.334 68.4024 105.796 68.4559 106.254 68.5174L106.252 68.5147ZM109.966 68.2255C111.742 67.4838 112.49 66.3696 112.555 65.1484C112.576 64.7199 112.496 64.3209 112.311 63.9621C112.469 63.9325 112.64 63.9031 112.826 63.8817C113.421 63.8121 114.126 63.804 114.837 63.9754C117.002 64.4977 117.788 66.4821 117.804 68.022C117.817 69.5646 117.069 71.5705 114.915 72.1543C113.99 72.406 113.067 72.3498 112.391 72.24C112.568 71.8758 112.643 71.4741 112.611 71.0456C112.525 69.8271 111.758 68.9166 109.969 68.2255H109.966Z" fill="white"/>
</g>
</svg>
