<svg width="420" height="150" viewBox="0 0 420 150" fill="none" xmlns="http://www.w3.org/2000/svg">
<path d="M190.887 53.3066H184.541V87.9199H190.887V53.3066Z" fill="white"/>
<path d="M193.816 87.9166H200.157V53.2441L193.816 53.3034V87.9166Z" fill="white"/>
<path d="M190.887 53.3066H184.541V87.9199H190.887V53.3066Z" fill="white"/>
<path d="M193.816 87.9166H200.157V53.2441L193.816 53.3034V87.9166Z" fill="white"/>
<path d="M289.183 63.5488C285.619 63.5488 282.754 65.1257 280.575 68.2675V63.8867H274.223V87.9185H280.575V80.1648C280.575 73.2944 283.428 69.8621 289.135 69.8621H289.692H290.532L290.68 67.2064L290.87 63.7504C290.479 63.62 289.917 63.5488 289.183 63.5488Z" fill="white"/>
<path d="M289.183 63.5488C285.619 63.5488 282.754 65.1257 280.575 68.2675V63.8867H274.223V87.9185H280.575V80.1648C280.575 73.2944 283.428 69.8621 289.135 69.8621H289.692H290.532L290.68 67.2064L290.87 63.7504C290.479 63.62 289.917 63.5488 289.183 63.5488Z" fill="white"/>
<path d="M310.034 80.114C309.969 79.3612 309.786 78.6617 309.495 78.0096C309.472 77.9563 309.46 77.897 309.436 77.8436C309.182 77.2983 308.909 76.7588 308.483 76.2846C307.405 75.0812 305.848 74.2513 303.794 73.8008L298.07 72.55C296.625 72.2299 295.903 71.5541 295.903 70.5286C295.903 69.8884 296.158 69.3371 296.673 68.8688C297.188 68.4064 298.016 68.1693 299.171 68.1693C300.455 68.1693 301.503 68.4775 302.32 69.0881C303.137 69.6987 303.611 70.4989 303.741 71.4948L309.803 70.2915C309.383 68.1693 308.24 66.4561 306.364 65.1342C304.487 63.8182 302.16 63.1602 299.366 63.1602C296.389 63.1602 294.003 63.9011 292.227 65.3772C291.576 65.9226 291.084 66.5391 290.67 67.203C290.167 68.0033 289.829 68.8865 289.681 69.8587C289.622 70.2618 289.557 70.6708 289.557 71.1095C289.557 72.8405 290.143 74.3047 291.309 75.4903C292.481 76.6818 294.157 77.4998 296.335 77.9504L301.237 78.9581C303.001 79.3434 303.883 80.0666 303.883 81.1277C303.883 81.8331 303.546 82.4141 302.877 82.8587C302.202 83.3092 301.29 83.5345 300.136 83.5345C297.123 83.5345 295.471 82.4437 295.187 80.2622L288.787 81.5605C289.077 83.9376 290.232 85.71 292.25 86.8836C294.269 88.0576 296.702 88.6383 299.562 88.6383C302.764 88.6383 305.322 87.9449 307.234 86.5696C309.11 85.2121 310.052 83.2499 310.081 80.7128C310.081 80.6713 310.046 80.28 310.034 80.114Z" fill="white"/>
<path d="M171.258 63.1602C171.229 63.1602 171.205 63.1661 171.175 63.1661C164.439 63.2135 158.98 68.6909 158.98 75.4488C158.98 75.5318 158.998 75.6088 159.004 75.6918C159.004 75.7629 158.986 75.8281 158.986 75.8934C158.986 82.9298 164.48 88.6326 171.253 88.6326C175.663 88.6326 179.505 86.1961 181.666 82.5682L176.219 80.5705C174.994 82.0525 173.248 83.0247 171.253 83.0247C168.654 83.0247 166.422 81.4123 165.327 79.0885C167.257 79.3968 169.24 79.5627 171.258 79.5627C171.933 79.5627 172.597 79.5153 173.259 79.4798C174.568 79.4086 175.858 79.2901 177.131 79.0944C179.256 78.7625 181.334 78.2645 183.335 77.6065C183.442 76.996 183.495 76.3617 183.513 75.7214C183.513 75.6266 183.536 75.5377 183.536 75.4428C183.53 68.6672 178.037 63.1602 171.258 63.1602ZM171.258 73.9609C169.305 73.9609 167.345 73.7534 165.415 73.3325C165.848 71.9098 166.712 70.7242 167.825 69.9061C168.216 69.6512 168.595 69.3786 169.033 69.2126C169.263 69.1237 169.5 69.0347 169.749 68.9755C169.926 68.928 170.11 68.9162 170.288 68.8806C170.607 68.8332 170.927 68.7798 171.258 68.7798C171.596 68.7798 171.921 68.8332 172.241 68.8865C172.413 68.9162 172.591 68.934 172.762 68.9814C173.017 69.0466 173.254 69.1355 173.496 69.2244C173.934 69.3904 174.313 69.6631 174.704 69.9239C175.811 70.7361 176.675 71.9216 177.101 73.3443C175.166 73.7474 173.212 73.9609 171.258 73.9609Z" fill="white"/>
<path d="M260.927 63.1602C260.897 63.1602 260.873 63.1661 260.844 63.1661C254.107 63.2135 248.648 68.6909 248.648 75.4488C248.648 75.5318 248.666 75.6088 248.672 75.6918C248.672 75.7629 248.654 75.8281 248.654 75.8934C248.654 82.9298 254.148 88.6326 260.921 88.6326C265.331 88.6326 269.173 86.1961 271.334 82.5682L265.888 80.5705C264.662 82.0525 262.916 83.0247 260.921 83.0247C258.322 83.0247 256.09 81.4123 254.995 79.0885C256.925 79.3968 258.908 79.5627 260.927 79.5627C261.601 79.5627 262.264 79.5153 262.928 79.4798C264.236 79.4086 265.526 79.2901 266.799 79.0944C268.925 78.7625 271.002 78.2645 273.003 77.6065C273.11 76.996 273.163 76.3617 273.181 75.7214C273.181 75.6266 273.204 75.5377 273.204 75.4428C273.198 68.6672 267.705 63.1602 260.927 63.1602ZM260.927 73.9609C258.973 73.9609 257.014 73.7534 255.083 73.3325C255.107 73.2614 255.154 73.208 255.178 73.1369C255.628 71.809 256.433 70.6827 257.487 69.9061C257.878 69.6512 258.257 69.3786 258.695 69.2126C258.926 69.1237 259.162 69.0347 259.411 68.9755C259.589 68.928 259.772 68.9162 259.95 68.8806C260.269 68.8332 260.589 68.7798 260.921 68.7798C261.258 68.7798 261.584 68.8332 261.903 68.8865C262.075 68.9162 262.252 68.934 262.424 68.9814C262.679 69.0466 262.922 69.1355 263.158 69.2244C263.596 69.3904 263.975 69.6631 264.366 69.9239C265.42 70.6946 266.219 71.8209 266.669 73.1428C266.693 73.2139 266.74 73.2673 266.763 73.3384C264.834 73.7474 262.88 73.9609 260.927 73.9609Z" fill="white"/>
<path d="M321.557 63.1602C321.528 63.1602 321.504 63.1661 321.475 63.1661C314.738 63.2135 309.279 68.6909 309.279 75.4488C309.279 75.5318 309.297 75.6088 309.303 75.6918C309.303 75.7629 309.285 75.8281 309.285 75.8934C309.285 82.9298 314.779 88.6326 321.551 88.6326C325.962 88.6326 329.804 86.1961 331.965 82.5682L326.518 80.5705C325.293 82.0525 323.546 83.0247 321.551 83.0247C318.953 83.0247 316.721 81.4123 315.625 79.0885C317.562 79.3968 319.539 79.5627 321.557 79.5627C322.232 79.5627 322.895 79.5153 323.558 79.4798C324.867 79.4086 326.157 79.2901 327.43 79.0944C329.555 78.7625 331.633 78.2645 333.634 77.6065C333.741 76.996 333.794 76.3617 333.812 75.7214C333.812 75.6266 333.835 75.5377 333.835 75.4428C333.835 68.6672 328.336 63.1602 321.557 63.1602ZM321.557 73.9609C319.604 73.9609 317.644 73.7534 315.714 73.3325C315.738 73.2614 315.786 73.208 315.809 73.1369C316.259 71.809 317.064 70.6827 318.118 69.9061C318.509 69.6512 318.887 69.3786 319.325 69.2126C319.562 69.1237 319.793 69.0347 320.042 68.9755C320.22 68.928 320.403 68.9162 320.58 68.8806C320.9 68.8332 321.22 68.7798 321.551 68.7798C321.889 68.7798 322.215 68.8332 322.534 68.8865C322.706 68.9162 322.883 68.934 323.055 68.9814C323.31 69.0466 323.546 69.1355 323.789 69.2244C324.227 69.3904 324.606 69.6631 324.997 69.9239C326.051 70.6946 326.85 71.8209 327.3 73.1428C327.323 73.2139 327.371 73.2673 327.395 73.3384C325.471 73.7474 323.517 73.9609 321.557 73.9609Z" fill="white"/>
<path d="M244.408 63.8359L237.867 80.1615L231.331 63.8359H229.638L227.027 69.9121L234.504 87.9152H241.235L251.234 63.8359H244.408Z" fill="white"/>
<path d="M220.272 63.8359L219.094 66.5687L213.742 78.9581L213.493 79.7702L210.794 72.3129L208.42 66.5746L207.289 63.8419H200.221L210.172 87.1505C209.225 89.7825 207.804 90.7308 204.791 90.7308V96.7655C206.656 96.8605 208.29 96.6232 209.758 96.1075C212.428 95.1652 214.506 93.1912 216.074 89.9188C216.116 89.8358 216.151 89.7352 216.187 89.6522L225.896 67.1911L227.34 63.8419H220.272V63.8359Z" fill="white"/>
<path d="M151.364 63.8359V82.9654V88.9348C151.364 89.4802 151.151 89.9308 150.736 90.2805C150.316 90.6302 149.777 90.8082 149.096 90.8082C148.593 90.8082 147.918 90.6538 147.113 90.3812C146.817 91.2408 146.563 92.1182 146.367 93.0192L146.308 93.3215C146.142 94.1692 146.03 95.0345 145.959 95.9178C147.534 96.4812 149.108 96.7835 150.683 96.7835C152.802 96.7835 154.496 96.1432 155.78 94.8568C157.065 93.5705 157.704 91.8868 157.704 89.8002V77.8081V63.8359H151.364Z" fill="white"/>
<path d="M131.724 76.0498C131.724 74.799 131.594 73.5779 131.405 72.3804C131.375 72.2026 131.357 72.0247 131.322 71.8469C131.109 70.7147 130.807 69.618 130.434 68.5569C130.363 68.3494 130.292 68.1538 130.215 67.9523C129.812 66.903 129.345 65.8834 128.8 64.9172C128.717 64.769 128.622 64.6267 128.533 64.4785C127.936 63.4767 127.284 62.5045 126.544 61.6094C126.521 61.5857 126.497 61.5619 126.48 61.5382C122.312 56.5232 116.042 53.334 109.027 53.334C102.012 53.334 95.7428 56.5232 91.5811 61.5323C91.5574 61.556 91.5337 61.5797 91.516 61.6034C90.776 62.4986 90.1248 63.4707 89.5269 64.4726C89.4381 64.6208 89.3433 64.763 89.2605 64.9112C88.7158 65.8834 88.2481 66.8971 87.8456 67.9463C87.7686 68.1479 87.6976 68.3435 87.6266 68.551C87.2536 69.618 86.9517 70.7147 86.7386 71.841C86.703 72.0188 86.6853 72.1967 86.6557 72.3745C86.4603 73.5779 86.3301 74.799 86.3301 76.0498C86.3301 76.0557 86.3301 76.0557 86.3301 76.0617V76.0676C86.3301 77.431 86.4722 78.7589 86.703 80.0571C88.5797 80.6736 90.4859 81.2071 92.4217 81.6754C92.2737 85.1966 91.6344 87.046 89.7459 88.0064C90.8233 89.7434 92.1139 91.3144 93.6057 92.7014C97.0393 90.413 98.0516 86.655 98.318 82.8254C99.1172 82.9499 99.9342 83.0329 100.745 83.1278V96.7737H107.47V83.6079C107.991 83.6198 108.5 83.6731 109.027 83.6731C109.554 83.6731 110.063 83.6198 110.584 83.6079V96.7737H117.309V83.1218C118.12 83.027 118.931 82.944 119.737 82.8195C120.003 86.649 121.015 90.4074 124.449 92.6954C125.935 91.3144 127.231 89.7374 128.309 88.0004C126.42 87.04 125.781 85.1848 125.633 81.6695C127.569 81.2012 129.481 80.6677 131.352 80.0512C131.582 78.7529 131.724 77.4251 131.724 76.0617V76.0557C131.724 76.0557 131.724 76.0557 131.724 76.0498ZM121.631 76.4766C120.24 76.7493 118.849 76.9805 117.451 77.1643C114.657 77.5318 111.845 77.7215 109.033 77.7215C106.221 77.7215 103.409 77.5377 100.615 77.1643C99.2179 76.9805 97.8207 76.7493 96.4355 76.4766C95.0502 76.198 93.6649 75.8779 92.2856 75.5104C92.4277 71.0111 94.3516 66.9504 97.3708 64.0161C100.39 61.0818 104.504 59.2738 109.033 59.2738C113.562 59.2738 117.676 61.0818 120.696 64.0161C123.715 66.9504 125.639 71.0051 125.781 75.5104C124.401 75.8779 123.016 76.2039 121.631 76.4766Z" fill="white"/>
</svg>
