<svg width="420" height="152" viewBox="0 0 420 152" fill="none" xmlns="http://www.w3.org/2000/svg">
<path d="M184.902 82.0688V77.197H196.442C198.207 77.197 199.584 76.6955 200.572 75.6925C201.559 74.6896 202.054 73.3674 202.054 71.7327C202.054 70.0979 201.559 68.7497 200.572 67.7727C199.584 66.7958 198.207 66.3073 196.442 66.3073H181.227V90.0765H176.246V61.2695H196.442C198.103 61.2695 199.584 61.5138 200.89 62.0022C202.193 62.4907 203.294 63.1779 204.191 64.0636C205.088 64.9494 205.773 66.024 206.248 67.2908C206.722 68.5575 206.959 69.9839 206.959 71.5698C206.959 73.1558 206.722 74.5463 206.248 75.8293C205.773 77.1091 205.088 78.2131 204.191 79.1379C203.294 80.0628 202.196 80.7825 200.89 81.297C199.588 81.8115 198.103 82.0688 196.442 82.0688H184.902Z" fill="white"/>
<path d="M223.306 90.07V79.1347L208.053 61.2695H214.81L225.997 74.5398L237.219 61.2695H243.623L228.327 79.1347V90.07H223.306Z" fill="white"/>
<path d="M260.929 90.07V66.3008H247.711V61.2695H279.186V66.3008H265.949V90.07H260.929Z" fill="white"/>
<path d="M310.588 61.2695H315.588V90.07H310.588V61.2695Z" fill="white"/>
<path d="M289.014 90.07V77.6041H307.617V73.1459H289.014V61.2695H284.014V90.07H289.014Z" fill="white"/>
<path d="M140.328 68.7987C140.328 72.7749 137.112 75.9988 133.145 75.9988V83.1989C141.079 83.1989 147.512 76.7511 147.512 68.7987C147.512 60.8464 141.079 54.3984 133.145 54.3984C130.529 54.3984 128.073 55.0986 125.961 56.3263C121.666 58.8143 118.777 63.4678 118.777 68.7987V104.799L125.236 111.273L125.961 111.999V68.7987C125.961 64.8225 129.177 61.5986 133.145 61.5986C137.112 61.5986 140.328 64.8225 140.328 68.7987Z" fill="white"/>
<path d="M133.145 40C127.91 40 123.004 41.4035 118.777 43.8557C116.071 45.4221 113.647 47.4183 111.594 49.7532C107.123 54.8301 104.41 61.4994 104.41 68.8005V90.4008L111.594 97.601V68.8005C111.594 62.4047 114.368 56.657 118.777 52.7003C120.85 50.8442 123.284 49.3787 125.961 48.4343C128.206 47.6332 130.627 47.2001 133.145 47.2001C145.046 47.2001 154.695 56.8719 154.695 68.8005C154.695 80.729 145.046 90.4008 133.145 90.4008V97.601C149.016 97.601 161.879 84.7052 161.879 68.8005C161.879 52.8957 149.016 40 133.145 40Z" fill="white"/>
</svg>
