<svg width="420" height="150" viewBox="0 0 420 150" fill="none" xmlns="http://www.w3.org/2000/svg">
<path fill-rule="evenodd" clip-rule="evenodd" d="M237.254 89.5139C235.4 88.7489 233.918 87.6167 232.808 86.1172C231.699 84.6178 231.114 82.8123 231.053 80.7008H239.352C239.473 81.8943 239.884 82.8047 240.583 83.432C241.282 84.0593 242.194 84.373 243.319 84.373C244.474 84.373 245.386 84.1052 246.055 83.5697C246.724 83.0342 247.058 82.2921 247.058 81.3435C247.058 80.5478 246.792 79.8899 246.26 79.3697C245.728 78.8495 245.074 78.4211 244.299 78.0844C243.524 77.7478 242.422 77.3653 240.993 76.9369C238.926 76.2943 237.239 75.6517 235.932 75.009C234.625 74.3664 233.5 73.4178 232.558 72.1631C231.615 70.9085 231.144 69.2713 231.144 67.2516C231.144 64.2527 232.223 61.9041 234.381 60.2057C236.54 58.5074 239.352 57.6582 242.817 57.6582C246.344 57.6582 249.186 58.5074 251.344 60.2057C253.503 61.9041 254.658 64.268 254.81 67.2976H246.374C246.313 66.2571 245.933 65.4385 245.234 64.8418C244.535 64.2451 243.638 63.9467 242.544 63.9467C241.601 63.9467 240.841 64.1992 240.264 64.7041C239.686 65.209 239.397 65.9358 239.397 66.8844C239.397 67.9249 239.884 68.7358 240.857 69.3172C241.829 69.8986 243.349 70.526 245.416 71.1992C247.484 71.903 249.163 72.5762 250.455 73.2189C251.747 73.8615 252.864 74.7948 253.807 76.0189C254.749 77.2429 255.22 78.8189 255.22 80.7467C255.22 82.5828 254.757 84.2505 253.83 85.75C252.902 87.2495 251.557 88.4429 249.794 89.3303C248.031 90.2178 245.948 90.6615 243.547 90.6615C241.206 90.6615 239.109 90.279 237.254 89.5139ZM274.19 83.6844V90.3402H270.222C267.395 90.3402 265.191 89.644 263.611 88.2517C262.03 86.8593 261.239 84.5872 261.239 81.4353V71.2451H258.139V64.7271H261.239V58.4844H269.037V64.7271H274.144V71.2451H269.037V81.5271C269.037 82.2921 269.219 82.8429 269.584 83.1795C269.949 83.5161 270.557 83.6844 271.408 83.6844H274.19ZM283.378 89.1008C281.387 88.0298 279.821 86.4997 278.681 84.5107C277.541 82.5216 276.971 80.1959 276.971 77.5336C276.971 74.9019 277.549 72.5839 278.704 70.5795C279.859 68.5751 281.44 67.0374 283.446 65.9664C285.453 64.8954 287.702 64.3598 290.195 64.3598C292.688 64.3598 294.937 64.8954 296.944 65.9664C298.95 67.0374 300.531 68.5751 301.686 70.5795C302.841 72.5839 303.419 74.9019 303.419 77.5336C303.419 80.1653 302.833 82.4833 301.663 84.4877C300.493 86.4921 298.897 88.0298 296.875 89.1008C294.854 90.1719 292.596 90.7074 290.104 90.7074C287.611 90.7074 285.369 90.1719 283.378 89.1008ZM293.911 82.2615C294.96 81.1598 295.484 79.5839 295.484 77.5336C295.484 75.4833 294.975 73.9074 293.957 72.8057C292.938 71.7041 291.684 71.1533 290.195 71.1533C288.675 71.1533 287.413 71.6965 286.41 72.7828C285.407 73.8691 284.905 75.4527 284.905 77.5336C284.905 79.5839 285.399 81.1598 286.387 82.2615C287.375 83.3631 288.614 83.9139 290.104 83.9139C291.593 83.9139 292.862 83.3631 293.911 82.2615ZM330.208 67.3664C331.987 69.3096 332.876 71.9795 332.876 75.3762V90.3402H325.124V76.432C325.124 74.7183 324.683 73.3872 323.802 72.4385C322.92 71.4899 321.734 71.0156 320.245 71.0156C318.755 71.0156 317.57 71.4899 316.688 72.4385C315.806 73.3872 315.366 74.7183 315.366 76.432V90.3402H307.568V64.7271H315.366V68.1238C316.156 66.9915 317.22 66.0965 318.558 65.4385C319.895 64.7806 321.4 64.4516 323.072 64.4516C326.051 64.4516 328.43 65.4232 330.208 67.3664ZM362.15 79.4156H344.504C344.625 81.0068 345.134 82.2232 346.031 83.0648C346.928 83.9063 348.03 84.3271 349.337 84.3271C351.283 84.3271 352.635 83.5008 353.395 81.8484H361.694C361.269 83.5314 360.501 85.0462 359.392 86.3926C358.282 87.7391 356.891 88.7948 355.219 89.5598C353.547 90.3249 351.678 90.7074 349.611 90.7074C347.118 90.7074 344.899 90.1719 342.953 89.1008C341.008 88.0298 339.488 86.4997 338.393 84.5107C337.299 82.5216 336.752 80.1959 336.752 77.5336C336.752 74.8713 337.291 72.5456 338.37 70.5566C339.45 68.5675 340.962 67.0374 342.908 65.9664C344.853 64.8954 347.087 64.3598 349.611 64.3598C352.073 64.3598 354.262 64.8801 356.177 65.9205C358.092 66.9609 359.589 68.4451 360.668 70.373C361.748 72.3008 362.287 74.55 362.287 77.1205C362.287 77.8549 362.242 78.62 362.15 79.4156ZM354.307 75.0549C354.307 73.7085 353.851 72.6374 352.939 71.8418C352.027 71.0462 350.887 70.6484 349.519 70.6484C348.212 70.6484 347.11 71.0309 346.214 71.7959C345.317 72.5609 344.762 73.6473 344.549 75.0549H354.307Z" fill="white"/>
<path fill-rule="evenodd" clip-rule="evenodd" d="M159.113 90.2614L152.467 78.1228H150.601V90.2614H142.816V58.1055H155.881C158.4 58.1055 160.547 58.5483 162.322 59.4338C164.098 60.3194 165.425 61.5333 166.306 63.0754C167.186 64.6176 167.626 66.3353 167.626 68.2286C167.626 70.3663 167.026 72.2749 165.828 73.9544C164.629 75.634 162.861 76.8249 160.524 77.5273L167.899 90.2614H159.113ZM150.601 72.5802H155.426C156.852 72.5802 157.922 72.2291 158.635 71.5267C159.348 70.8243 159.705 69.8319 159.705 68.5493C159.705 67.3278 159.348 66.3659 158.635 65.6635C157.922 64.9611 156.852 64.61 155.426 64.61H150.601V72.5802Z" fill="white"/>
<path fill-rule="evenodd" clip-rule="evenodd" d="M196.427 79.4146H178.783C178.905 81.006 179.414 82.2225 180.311 83.0641C181.207 83.9057 182.309 84.3265 183.616 84.3265C185.561 84.3265 186.914 83.5002 187.673 81.8476H195.971C195.545 83.5308 194.778 85.0457 193.669 86.3923C192.559 87.7389 191.169 88.7947 189.497 89.5598C187.825 90.3249 185.956 90.7074 183.89 90.7074C181.397 90.7074 179.179 90.1719 177.233 89.1007C175.288 88.0296 173.769 86.4994 172.674 84.5101C171.58 82.5209 171.033 80.195 171.033 77.5324C171.033 74.8699 171.573 72.544 172.652 70.5547C173.731 68.5655 175.243 67.0353 177.188 65.9641C179.133 64.893 181.367 64.3574 183.89 64.3574C186.351 64.3574 188.54 64.8777 190.454 65.9182C192.369 66.9588 193.866 68.443 194.945 70.3711C196.024 72.2992 196.563 74.5485 196.563 77.1193C196.563 77.8538 196.518 78.6189 196.427 79.4146ZM188.585 75.0535C188.585 73.7069 188.129 72.6358 187.218 71.8401C186.306 71.0444 185.166 70.6465 183.798 70.6465C182.491 70.6465 181.39 71.0291 180.493 71.7942C179.596 72.5593 179.042 73.6457 178.829 75.0535H188.585Z" fill="white"/>
<path fill-rule="evenodd" clip-rule="evenodd" d="M200.733 70.34C201.721 68.3737 203.067 66.8611 204.771 65.8023C206.474 64.7435 208.375 64.2141 210.474 64.2141C212.147 64.2141 213.676 64.5619 215.06 65.2577C216.444 65.9535 217.531 66.8913 218.322 68.0711V56.3184H226.124V89.8977H218.322V86.2675C217.592 87.4776 216.55 88.4457 215.196 89.1717C213.843 89.8978 212.269 90.2608 210.474 90.2608C208.375 90.2608 206.474 89.7238 204.771 88.6499C203.067 87.5759 201.721 86.0482 200.733 84.0667C199.744 82.0852 199.25 79.7937 199.25 77.192C199.25 74.5904 199.744 72.3064 200.733 70.34ZM216.702 72.6543C215.622 71.535 214.307 70.9753 212.755 70.9753C211.204 70.9753 209.889 71.5274 208.809 72.6316C207.729 73.7358 207.189 75.2559 207.189 77.192C207.189 79.1282 207.729 80.6634 208.809 81.7979C209.889 82.9323 211.204 83.4995 212.755 83.4995C214.307 83.4995 215.622 82.9399 216.702 81.8205C217.782 80.7012 218.322 79.1735 218.322 77.2374C218.322 75.3013 217.782 73.7736 216.702 72.6543Z" fill="white"/>
<path fill-rule="evenodd" clip-rule="evenodd" d="M111.147 73.155L102.824 59.431L107.135 52.3971L119.723 73.155H111.147ZM82.8173 92.4423H99.6433L103.844 99.3074H78.6925L82.8173 92.4423ZM99.6373 57.5738H82.797L78.6808 50.6926H103.854L99.6373 57.5738ZM99.6246 88.7497H82.7923L74.4587 75.0081L82.7923 61.2664H99.6246L107.958 75.0081L99.6246 88.7497ZM75.412 52.4119L79.6018 59.4157L71.2724 73.1506H62.8357L75.412 52.4119ZM62.8319 76.8432H71.2586L79.6117 90.617L75.4179 97.5975L62.8319 76.8432ZM107.129 97.612L102.827 90.5802L111.155 76.8476H119.722L107.129 97.612ZM108.713 47.8877C108.379 47.3365 107.782 47 107.138 47H75.4179C74.774 47 74.1769 47.3365 73.8428 47.8877L57.9828 74.0413C57.6256 74.6303 57.6255 75.3695 57.9827 75.9585L73.8428 102.112C74.1769 102.663 74.774 103 75.4179 103H107.138C107.782 103 108.379 102.663 108.713 102.112L124.573 75.9585C124.931 75.3695 124.931 74.6303 124.573 74.0413L108.713 47.8877Z" fill="white"/>
<path fill-rule="evenodd" clip-rule="evenodd" d="M100.747 77.8843C99.8878 77.339 98.749 77.5946 98.2044 78.4562L94.9424 83.6156C94.3979 84.477 94.6534 85.6177 95.5133 86.1633C95.8192 86.3574 96.1605 86.45 96.4978 86.45C97.1081 86.45 97.7056 86.1464 98.0564 85.5915L101.318 80.4321C101.863 79.5707 101.607 78.43 100.747 77.8843Z" fill="white"/>
<path fill-rule="evenodd" clip-rule="evenodd" d="M103.43 73.1322C102.553 72.6152 101.423 72.9084 100.907 73.7874L100.667 74.1961C100.151 75.075 100.444 76.2066 101.321 76.7236C101.614 76.8966 101.936 76.9789 102.254 76.9789C102.885 76.9789 103.5 76.6532 103.844 76.0683L104.084 75.6598C104.6 74.7808 104.307 73.6493 103.43 73.1322Z" fill="white"/>
</svg>
