<svg width="420" height="152" viewBox="0 0 420 152" fill="none" xmlns="http://www.w3.org/2000/svg">
<path fill-rule="evenodd" clip-rule="evenodd" d="M298.889 56.7857C298.229 56.1041 297.393 55.7611 296.5 55.5252C296.363 55.4891 296.223 55.4666 296.083 55.4441C295.917 55.4174 295.752 55.3909 295.593 55.342C295.181 55.2155 294.756 55.1856 294.333 55.1559H294.333L294.333 55.1558L294.333 55.1558L294.333 55.1558C294.185 55.1454 294.037 55.135 293.89 55.1205C293.357 55.0676 292.816 55.0781 292.276 55.0886H292.276L292.276 55.0886C292.068 55.0927 291.859 55.0967 291.651 55.0971C291.434 55.0975 291.216 55.1018 291.002 55.1312C290.483 55.2034 289.964 55.2882 289.446 55.3751C289.4 55.3828 289.354 55.3904 289.308 55.398C289.048 55.4407 288.787 55.4836 288.536 55.5564C288.328 55.6168 288.125 55.6924 287.922 55.768C287.761 55.8278 287.6 55.8876 287.436 55.94C286.82 56.1375 286.266 56.4513 285.716 56.7817C285.1 57.1513 284.589 57.6382 284.113 58.1586C283.57 58.7507 283.139 59.4209 282.837 60.1689C282.641 60.6523 282.454 61.1345 282.375 61.6553C282.348 61.8304 282.309 62.0042 282.27 62.1777L282.27 62.1778V62.1778L282.27 62.1778C282.214 62.4227 282.159 62.6671 282.139 62.9147C282.084 63.6049 282.068 64.3001 282.067 64.9929C282.063 72.9817 282.064 80.9705 282.067 88.9594C282.067 89.3651 282.081 89.7731 282.128 90.1757C282.155 90.4044 282.23 90.6396 282.337 90.8447C282.695 91.5363 283.321 91.8488 284.062 91.9723C284.217 91.9982 284.375 92.0096 284.531 92.0209L284.564 92.0233C284.662 92.0304 284.762 92.0421 284.861 92.0538C285.098 92.0817 285.335 92.1096 285.563 92.0757L285.732 92.0506C286.321 91.9632 286.913 91.8755 287.485 91.6933C287.637 91.6448 287.71 91.5669 287.726 91.4279C287.736 91.3414 287.735 91.2536 287.733 91.1659V91.1659C287.733 91.1337 287.732 91.1016 287.732 91.0695V72.7716L287.732 72.7065C287.732 72.6085 287.731 72.5104 287.738 72.4129C287.746 72.2746 287.818 72.1916 287.966 72.1913C288.015 72.1913 288.063 72.191 288.111 72.1907L288.111 72.1907C288.159 72.1905 288.207 72.1902 288.256 72.1902C290.894 72.1902 293.533 72.1902 296.171 72.1895C296.388 72.1895 296.605 72.1827 296.821 72.1755C297.022 72.1687 297.208 72.1274 297.405 72.0552C298.02 71.8293 298.313 71.3639 298.45 70.7792C298.559 70.3138 298.615 69.8398 298.475 69.3629C298.42 69.1732 298.382 68.9783 298.344 68.7837L298.344 68.7834L298.344 68.783C298.334 68.7354 298.325 68.6878 298.316 68.6404C298.175 67.9376 298.008 67.7972 297.299 67.7968H294.878L293.444 67.7969H293.444H293.444H293.444C291.693 67.7971 289.942 67.7973 288.191 67.795C288.066 67.795 287.94 67.783 287.799 67.7695C287.727 67.7626 287.651 67.7553 287.569 67.749V67.2991C287.569 67.0562 287.569 66.8134 287.568 66.5705C287.567 66.0241 287.566 65.4776 287.571 64.9311C287.578 64.0735 287.601 63.2203 287.891 62.3932C288.076 61.8643 288.325 61.3816 288.711 60.9751C289.307 60.3488 290.084 60.0457 290.897 59.8414C291.43 59.7078 291.98 59.6507 292.536 59.6597C292.759 59.6634 292.982 59.6621 293.205 59.6607C293.891 59.6567 294.577 59.6527 295.262 59.795C295.51 59.8465 295.758 59.8975 296.007 59.9485L296.007 59.9486C296.234 59.9952 296.461 60.0418 296.688 60.0888C297.257 60.2062 297.799 60.3793 298.314 60.6461C298.422 60.7022 298.514 60.6997 298.618 60.5747C299.139 59.9484 299.501 59.2668 299.513 58.4311C299.522 57.7973 299.339 57.25 298.889 56.785L298.889 56.7857ZM231.541 80.485C230.882 79.5929 230.043 78.9081 229.088 78.3522C228.503 78.0114 227.879 77.7496 227.253 77.499C226.829 77.3295 226.39 77.1977 225.951 77.0684C225.784 77.019 225.611 76.986 225.439 76.9529C225.344 76.9347 225.25 76.9165 225.156 76.8957L225.113 76.8862C224.896 76.8384 224.68 76.7906 224.466 76.7326C224.281 76.6823 224.096 76.629 223.912 76.5756L223.911 76.5756L223.911 76.5756C223.632 76.4949 223.353 76.4143 223.072 76.3441C222.872 76.2942 222.67 76.2536 222.468 76.2129L222.468 76.2129C222.183 76.1555 221.897 76.098 221.62 76.0147C221.487 75.9749 221.354 75.9367 221.221 75.8984C220.804 75.7786 220.386 75.6587 219.982 75.4883C219.051 75.0961 218.438 74.4278 218.252 73.4676C218.067 72.5073 218.329 71.6454 219.154 71.0033C219.876 70.442 220.719 70.1964 221.59 70.033C222.07 69.9429 222.568 69.8998 223.056 69.9048C223.666 69.9111 224.276 69.9664 224.885 70.0217L225.03 70.0348C225.326 70.0614 225.621 70.1181 225.908 70.1932C226.223 70.2756 226.534 70.3725 226.845 70.4695L226.845 70.4695C226.96 70.5052 227.074 70.541 227.189 70.576C227.294 70.6081 227.401 70.6375 227.508 70.6668L227.508 70.6669C227.754 70.7347 228 70.8025 228.232 70.9042C228.862 71.1811 229.479 71.4881 230.091 71.8031C230.303 71.9126 230.458 71.9058 230.642 71.7549C231.254 71.2507 231.614 70.6327 231.689 69.8287C231.771 68.9567 231.496 68.2507 230.845 67.6812C230.8 67.6418 230.755 67.6019 230.71 67.5619L230.71 67.5615L230.709 67.5607C230.483 67.3596 230.254 67.1567 229.996 67.0093C229.522 66.7392 229.02 66.5123 228.514 66.3032C228.235 66.1877 227.937 66.1141 227.641 66.0409L227.641 66.0409C227.593 66.0293 227.546 66.0177 227.5 66.0059C227.313 65.959 227.123 65.9233 226.933 65.8876C226.832 65.8686 226.73 65.8496 226.63 65.8289C226.503 65.8028 226.377 65.7728 226.25 65.7429C225.984 65.6796 225.717 65.6163 225.446 65.5897C224.841 65.53 224.234 65.491 223.624 65.4517L223.623 65.4517C223.378 65.4359 223.133 65.4201 222.886 65.403C222.053 65.4629 221.216 65.5233 220.379 65.5843C220.319 65.5886 220.259 65.5983 220.201 65.6109C219.83 65.6892 219.458 65.7678 219.088 65.849C219.017 65.8644 218.947 65.8787 218.877 65.8931L218.877 65.8931L218.876 65.8932C218.679 65.9334 218.482 65.9737 218.292 66.0364C218.119 66.0937 217.95 66.1638 217.781 66.2339C217.626 66.2982 217.47 66.3626 217.312 66.4171C216.754 66.6089 216.252 66.9033 215.775 67.2351C215.069 67.7257 214.453 68.3114 213.943 69.0088C213.462 69.6649 213.119 70.3835 212.886 71.1534C212.737 71.6447 212.705 72.1579 212.684 72.671C212.636 73.8396 212.793 74.9679 213.3 76.0345C213.606 76.6766 214.019 77.2523 214.53 77.7385C215.057 78.2391 215.651 78.6654 216.312 78.9907C217.1 79.3789 217.897 79.7441 218.762 79.9345C218.896 79.9638 219.028 80.003 219.159 80.0421C219.231 80.0634 219.302 80.0846 219.374 80.1043C219.446 80.1241 219.518 80.1441 219.59 80.1642L219.591 80.1644C219.815 80.2264 220.038 80.2884 220.263 80.3435C220.382 80.3726 220.503 80.3965 220.623 80.4203C220.77 80.4495 220.917 80.4786 221.062 80.5173C221.295 80.5799 221.526 80.6484 221.757 80.7169C221.977 80.782 222.197 80.8472 222.418 80.9073C222.976 81.0585 223.534 81.2086 224.097 81.3379C224.805 81.5006 225.447 81.8094 226.017 82.2403C226.742 82.7891 227.18 83.5163 227.19 84.4514C227.19 84.5095 227.192 84.5678 227.193 84.6261C227.197 84.8435 227.202 85.0616 227.174 85.2748C227.139 85.5417 227.087 85.8214 226.97 86.0599C226.672 86.6628 226.198 87.0945 225.586 87.4015C225.037 87.6769 224.452 87.8368 223.861 87.9161C223.259 87.9969 222.646 88.0058 222.035 88.0146L221.809 88.018L221.7 88.0199C221.329 88.0267 220.955 87.9905 220.584 87.9527L220.486 87.9428L220.486 87.9428C220.103 87.9044 219.719 87.8658 219.345 87.7822C219.113 87.7302 218.887 87.6559 218.66 87.5816C218.462 87.5166 218.264 87.4516 218.063 87.4015C217.533 87.27 217.044 87.0374 216.559 86.8066L216.405 86.7336C215.871 86.481 215.354 86.1936 214.837 85.9063L214.836 85.9061L214.836 85.9059C214.639 85.7963 214.441 85.6867 214.243 85.579C214.011 85.453 213.922 85.4591 213.699 85.625C213.122 86.0527 212.725 86.5906 212.533 87.2952C212.372 87.8877 212.404 88.4494 212.648 88.9978C213.016 89.8273 213.708 90.3527 214.456 90.8124C215.022 91.1607 215.636 91.4203 216.259 91.6462C216.59 91.766 216.935 91.8494 217.278 91.9327L217.278 91.9327L217.28 91.9331C217.339 91.9473 217.397 91.9615 217.456 91.9759C217.566 92.0028 217.679 92.02 217.792 92.0372C217.962 92.0631 218.132 92.0889 218.29 92.1479C218.56 92.2489 218.84 92.2788 219.119 92.3087C219.288 92.3268 219.457 92.3448 219.623 92.3785C219.961 92.4467 220.309 92.4649 220.656 92.4832C220.801 92.4908 220.946 92.4984 221.09 92.5095C221.948 92.5757 222.803 92.5141 223.658 92.4524C224.05 92.4241 224.442 92.3958 224.835 92.3799C224.865 92.3787 224.895 92.3724 224.925 92.3661L224.941 92.3627L225.155 92.3194L225.533 92.2427C225.731 92.2027 225.928 92.1626 226.126 92.1228C226.217 92.1042 226.311 92.0893 226.404 92.0744L226.404 92.0744C226.606 92.0421 226.808 92.0098 226.996 91.94C227.125 91.8918 227.255 91.8448 227.384 91.7977C227.814 91.6418 228.244 91.4858 228.662 91.2886C229.782 90.7592 230.719 90.0173 231.475 89.0556C231.898 88.5169 232.191 87.9018 232.42 87.2485C232.619 86.6808 232.741 86.1004 232.792 85.5144C232.876 84.5387 232.827 83.5676 232.556 82.6088C232.338 81.8378 232.018 81.13 231.542 80.4853L231.541 80.485ZM274.124 69.7127C274.123 69.8033 274.123 69.8939 274.123 69.9845H274.122C274.123 77.0138 274.123 84.0434 274.122 91.0727C274.122 91.1054 274.123 91.1383 274.124 91.1712C274.129 91.3404 274.134 91.5092 274.013 91.643L273.387 91.8138L272.944 91.9346C272.937 91.9366 272.93 91.939 272.922 91.9413C272.907 91.9466 272.891 91.9518 272.875 91.9532C272.708 91.9676 272.542 91.9881 272.375 92.0087C271.992 92.0557 271.609 92.1028 271.232 92.0761C270.578 92.0297 269.912 91.9529 269.337 91.5536C268.88 91.2361 268.636 90.812 268.522 90.2837C268.399 89.7198 268.402 89.1507 268.404 88.5812C268.404 88.5062 268.404 88.4313 268.404 88.3564V66.9453C268.404 66.9094 268.405 66.8735 268.405 66.8376V66.8375V66.8375C268.406 66.7657 268.407 66.694 268.404 66.6225C268.398 66.43 268.52 66.3294 268.681 66.3032C268.875 66.2713 269.07 66.2357 269.265 66.2C270.071 66.0526 270.879 65.9049 271.704 66.0159C272.321 66.0989 272.936 66.2192 273.421 66.6785C273.763 67.0021 273.956 67.3798 274.029 67.8395C274.128 68.4619 274.126 69.0872 274.124 69.7127ZM273.439 55.8253C272.813 55.3197 272.053 55.2012 271.287 55.1204C271.193 55.1104 271.095 55.1349 270.998 55.1595C270.919 55.1793 270.84 55.1993 270.761 55.2015C270.359 55.2127 269.998 55.3362 269.643 55.515C268.533 56.0727 267.93 56.9755 267.827 58.1893C267.756 59.0343 268.012 59.8107 268.55 60.4701C269.147 61.2034 269.948 61.6006 270.89 61.6781C271.327 61.714 271.763 61.695 272.205 61.5787C272.721 61.4433 273.187 61.2425 273.571 60.8917C274.297 60.227 274.66 59.3952 274.672 58.394C274.651 58.2839 274.631 58.1732 274.612 58.0625L274.612 58.0624L274.612 58.0622C274.568 57.8127 274.524 57.563 274.46 57.3185C274.301 56.7037 273.928 56.2218 273.438 55.826L273.439 55.8253ZM260.373 70.3292C260.906 71.1304 261.32 71.9973 261.621 72.9231H261.622C261.861 73.6628 262.042 74.4141 262.123 75.1754C262.205 75.9439 262.216 76.7325 262.141 77.5014C262.064 78.3036 261.615 78.908 260.82 79.2165C260.442 79.363 260.065 79.4736 259.656 79.5128C259.335 79.5435 259.018 79.6061 258.7 79.6686C258.561 79.696 258.422 79.7233 258.283 79.748C258.265 79.7513 258.246 79.7532 258.228 79.755C258.223 79.7555 258.217 79.7561 258.212 79.7566C258.049 79.775 257.886 79.7921 257.723 79.8093C257.362 79.8474 257.001 79.8854 256.643 79.9358C256.328 79.9799 256.016 80.0377 255.704 80.0955C255.561 80.1219 255.418 80.1484 255.275 80.1736C255.251 80.1775 255.227 80.1815 255.203 80.1843C255.049 80.202 254.895 80.2186 254.741 80.2352C254.396 80.2724 254.052 80.3095 253.709 80.3581C253.363 80.4071 253.02 80.4675 252.676 80.5279C252.529 80.5538 252.381 80.5798 252.233 80.6048C252.209 80.6092 252.185 80.6131 252.161 80.6156C252.007 80.6328 251.852 80.6491 251.697 80.6653C251.341 80.7025 250.985 80.7398 250.631 80.7891C250.302 80.8348 249.975 80.8931 249.648 80.9515C249.508 80.9766 249.367 81.0017 249.227 81.0257C249.203 81.0297 249.18 81.0358 249.156 81.0387C248.998 81.0573 248.84 81.075 248.682 81.0927C248.341 81.1308 248.001 81.1689 247.662 81.2168C247.319 81.2652 246.978 81.3234 246.636 81.3817C246.486 81.4073 246.336 81.4329 246.186 81.4577C246.162 81.4617 246.139 81.4671 246.115 81.47C245.959 81.4877 245.803 81.5048 245.647 81.5218C245.293 81.5605 244.938 81.5992 244.585 81.6466C244.369 81.6757 244.155 81.7169 243.926 81.7613C243.817 81.7822 243.705 81.8038 243.588 81.8251C243.618 81.9308 243.645 82.0353 243.672 82.1387C243.731 82.3606 243.788 82.5772 243.86 82.7886C244.152 83.6404 244.572 84.429 245.135 85.134C245.603 85.7201 246.158 86.2207 246.796 86.6207C247.379 86.9859 247.999 87.2912 248.654 87.4959C249.009 87.6069 249.377 87.6883 249.743 87.7695C249.851 87.7933 249.958 87.8172 250.065 87.8417C250.432 87.9257 250.8 87.9418 251.167 87.9579C251.432 87.9696 251.698 87.9812 251.961 88.0184C252.18 88.0493 252.407 88.03 252.633 88.0108C252.733 88.0023 252.833 87.9938 252.932 87.9897C252.995 87.9869 253.059 87.983 253.123 87.9791C253.239 87.9719 253.356 87.9648 253.473 87.9645C253.951 87.9634 254.414 87.8692 254.878 87.7746C254.997 87.7504 255.116 87.7262 255.235 87.7034C255.799 87.5964 256.334 87.4086 256.862 87.2143C257.693 86.9087 258.491 86.518 259.253 86.0637C259.343 86.0101 259.428 85.9498 259.512 85.891C259.549 85.8647 259.586 85.8387 259.623 85.8138C260.315 86.1553 260.728 86.7363 260.966 87.4025C261.287 88.3003 261.111 89.1399 260.457 89.8761C259.92 90.4819 259.279 90.9322 258.544 91.2576C258.484 91.2839 258.425 91.3104 258.366 91.3369C257.986 91.5066 257.604 91.6769 257.209 91.8002C256.866 91.9069 256.513 91.9778 256.159 92.0486C256.023 92.0757 255.888 92.1029 255.753 92.132C255.467 92.194 255.181 92.2525 254.894 92.311C254.785 92.3333 254.676 92.3556 254.567 92.378C254.544 92.3827 254.519 92.3838 254.495 92.3845C254.099 92.3974 253.704 92.4279 253.308 92.4585C252.589 92.5141 251.87 92.5698 251.147 92.5188C251.042 92.5114 250.937 92.5045 250.832 92.4975C250.399 92.4687 249.965 92.4398 249.535 92.3848C248.957 92.3112 248.377 92.2254 247.811 92.0911C247.137 91.9316 246.459 91.7618 245.816 91.5126C244.737 91.0945 243.714 90.571 242.773 89.8732C241.655 89.0437 240.726 88.0514 239.968 86.9066C239.427 86.091 239.022 85.2026 238.71 84.2671C238.507 83.6584 238.342 83.0414 238.198 82.4205C238.133 82.1386 238.103 81.8487 238.074 81.5584C238.053 81.3502 238.032 81.1419 237.997 80.9363C237.822 79.8895 237.857 78.8369 237.893 77.7866C237.896 77.6915 237.899 77.5964 237.902 77.5014C237.916 77.0507 237.988 76.6015 238.06 76.153C238.085 76.0008 238.109 75.8486 238.132 75.6965L238.141 75.6323C238.194 75.266 238.248 74.8978 238.339 74.5401C238.456 74.083 238.59 73.6273 238.764 73.1888C239.071 72.4117 239.43 71.6575 239.871 70.9429C240.525 69.8853 241.333 68.961 242.287 68.167C242.99 67.5827 243.762 67.095 244.601 66.7222C244.677 66.6884 244.753 66.6542 244.829 66.62C245.32 66.399 245.815 66.1766 246.33 66.0338C246.863 65.8859 247.408 65.7562 247.962 65.6665C248.431 65.5906 248.902 65.5417 249.372 65.4928C249.519 65.4776 249.665 65.4623 249.811 65.4463C250.24 65.3993 250.679 65.4179 251.111 65.4417C251.626 65.47 252.144 65.5034 252.651 65.5928C253.006 65.6552 253.354 65.7507 253.703 65.8463C253.866 65.891 254.03 65.9357 254.194 65.9771C255.599 66.3315 256.837 67.016 258.006 67.8477C258.958 68.525 259.735 69.37 260.373 70.3292ZM256.245 75.915C256.325 75.907 256.405 75.8989 256.485 75.8908L256.486 75.8904C256.809 75.8577 256.858 75.8319 256.828 75.5252C256.824 75.487 256.82 75.4487 256.817 75.4104C256.78 75.0353 256.744 74.6548 256.638 74.2974C256.384 73.4488 255.997 72.6702 255.423 71.9682C254.351 70.6574 252.97 70.0013 251.304 69.8692C251.188 69.8601 251.071 69.8573 250.955 69.8546C250.915 69.8537 250.875 69.8528 250.835 69.8516C249.778 69.8192 248.734 69.8781 247.743 70.2976C247.206 70.5253 246.695 70.7953 246.229 71.1523C245.243 71.9064 244.496 72.8423 244.005 73.9745C243.785 74.482 243.601 75.0045 243.506 75.5539C243.476 75.7292 243.44 75.9034 243.405 76.0776C243.357 76.3104 243.309 76.543 243.275 76.7778L243.27 76.8126C243.225 77.1126 243.18 77.4198 243.279 77.7151C243.36 77.7038 243.435 77.6931 243.506 77.683C243.665 77.6603 243.803 77.6405 243.941 77.6238C244.008 77.6159 244.075 77.611 244.143 77.606C244.231 77.5995 244.32 77.593 244.407 77.5797C244.611 77.5487 244.814 77.5152 245.017 77.4817C245.319 77.4318 245.622 77.3818 245.925 77.3401C246.268 77.2931 246.612 77.2559 246.956 77.2187C247.11 77.202 247.265 77.1854 247.419 77.1678C247.431 77.1663 247.443 77.1642 247.455 77.162C247.601 77.1368 247.748 77.1106 247.894 77.0843C248.228 77.0245 248.561 76.9646 248.897 76.9175C249.249 76.8677 249.604 76.83 249.958 76.7923C250.115 76.7756 250.272 76.7589 250.429 76.7411C250.453 76.7386 250.477 76.7358 250.5 76.7315C250.642 76.7066 250.784 76.6805 250.926 76.6545C251.252 76.5945 251.578 76.5346 251.906 76.4898C252.277 76.439 252.65 76.4018 253.023 76.3646C253.185 76.3484 253.347 76.3322 253.509 76.3149C253.515 76.3143 253.52 76.3138 253.526 76.3133C253.544 76.3114 253.563 76.3096 253.581 76.3063C253.722 76.2809 253.863 76.2542 254.004 76.2275C254.319 76.1678 254.635 76.108 254.953 76.0628C255.382 76.0016 255.813 75.9583 256.245 75.915Z" fill="white"/>
<path fill-rule="evenodd" clip-rule="evenodd" d="M192.5 76C192.5 95.8823 176.38 112 156.493 112C136.607 112 120.486 95.8823 120.486 76C120.486 56.1177 136.607 40 156.493 40C176.38 40 192.5 56.1177 192.5 76ZM172.234 72.4713C172.651 73.6215 173.735 74.337 174.894 74.337L174.892 74.3388C175.211 74.3388 175.534 74.2844 175.851 74.1703C177.32 73.6396 178.08 72.0221 177.55 70.5549C175.287 64.2858 170.733 59.138 165.054 56.4282C161.681 54.789 157.531 53.9503 153.371 54.0681C146.2 54.2438 139.736 57.4643 135.171 63.1374C134.191 64.3529 134.385 66.1316 135.602 67.1079C136.819 68.086 138.599 67.8922 139.577 66.6768C143.081 62.3205 148.03 59.8481 153.52 59.714C156.798 59.6216 160.018 60.2592 162.588 61.5109L162.609 61.5217C166.961 63.5939 170.47 67.5861 172.234 72.4713ZM155.088 92.579C156.301 93.5607 156.49 95.3377 155.509 96.5513C154.951 97.2414 154.135 97.6 153.31 97.6C152.686 97.6 152.059 97.3935 151.535 96.9715C148.264 94.3305 142.548 88.8204 141.022 81.595C140.211 77.7079 140.81 74.116 142.75 71.1961C146.332 65.8744 153.311 63.6319 159.355 65.849C162.843 67.1097 165.85 70.3756 167.384 74.5797C167.918 76.0451 167.162 77.6662 165.695 78.2006C164.229 78.7349 162.606 77.9796 162.071 76.5142C161.324 74.4656 159.708 71.984 157.416 71.1544C153.774 69.8177 149.587 71.1563 147.449 74.3333C146.088 76.3838 146.209 78.7838 146.554 80.4357C147.718 85.944 152.401 90.409 155.088 92.579ZM177.978 87.6395C178.426 89.1338 177.577 90.7079 176.081 91.1553H176.08C173.906 91.8055 171.699 92.1298 169.554 92.1298C167.224 92.1298 164.968 91.7476 162.905 90.9832C157.808 89.0614 153.636 84.7884 151.729 79.5446C151.195 78.0792 151.953 76.458 153.42 75.9255C154.889 75.393 156.51 76.1501 157.043 77.6155C158.396 81.3306 161.328 84.3501 164.887 85.6923C167.69 86.7302 171.093 86.7519 174.459 85.7448C175.954 85.2974 177.53 86.1451 177.978 87.6395Z" fill="white"/>
</svg>
