<svg width="420" height="150" viewBox="0 0 420 150" fill="none" xmlns="http://www.w3.org/2000/svg">
<path d="M149.825 45C133.211 45 119.742 58.4197 119.742 74.9693C119.742 85.7364 125.444 95.1739 134.004 100.459C133.936 100.022 133.902 99.5858 133.902 99.1358V67.4548C133.902 66.4866 134.1 65.5455 134.497 64.659C137.197 58.6038 143.009 54.8398 149.668 54.8398C156.328 54.8398 162.132 58.6038 164.84 64.659C165.236 65.5455 165.435 66.4796 165.435 67.4481V99.1288C165.435 99.654 165.38 100.165 165.298 100.67C174.056 95.433 179.915 85.8797 179.915 74.9625C179.909 58.4197 166.439 45 149.825 45Z" fill="white"/>
<path d="M146.92 74.1504C142.982 73.8095 139.618 72.7797 138.012 71.3887V78.9305C138.012 79.7555 138.306 80.4511 138.511 80.758C139.345 81.9922 143.365 83.7243 149.683 83.7243C156 83.7243 160.034 81.9854 160.868 80.758C161.073 80.4511 161.552 79.6942 161.552 78.8759C161.532 77.8743 161.514 76.8997 161.496 75.9689L161.496 75.943V75.9406L161.496 75.9342C161.477 74.9577 161.46 74.0296 161.443 73.1684C158.543 74.7845 154.202 75.6779 148.896 75.6779C147.946 75.6779 147.146 75.0232 146.92 74.1504Z" fill="white"/>
<path d="M161.606 81.9931C159.794 83.8137 154.98 85.0956 149.682 85.0956C144.383 85.0956 139.973 83.9161 138.004 82.2113V87.9188C138.004 88.9212 138.004 89.6645 138.264 90.0462C139.385 91.6829 143.569 93.3331 150.393 93.3331C151.22 93.3331 151.931 93.824 152.252 94.5263C157.49 94.0422 161.776 92.1466 161.742 89.8758V89.644C161.742 89.4816 161.735 89.3183 161.728 89.1556C161.716 88.9013 161.705 88.6482 161.722 88.403C161.688 86.3232 161.647 84.1341 161.606 81.9863V81.9931Z" fill="white"/>
<path d="M152.376 95.9042C152.144 96.777 151.351 97.4248 150.401 97.4248C145.191 97.4248 140.911 96.5657 138.012 95.0042V99.4841C138.012 102.866 143.146 104.742 148.684 104.98L148.704 104.981C148.916 104.987 149.122 104.994 149.334 104.994C149.416 104.994 149.498 104.996 149.58 104.997C149.662 104.999 149.744 105.001 149.826 105.001C151.276 105.001 152.746 104.817 154.14 104.619C158.421 103.964 161.88 102.253 161.88 99.4773C161.88 98.3522 161.846 95.8428 161.798 92.6992C160.43 94.3085 156.745 95.5292 152.376 95.8907V95.9042Z" fill="white"/>
<path d="M138.51 69.9442C139.221 70.9944 142.243 72.4059 147.029 72.8013C147.35 72.0922 148.061 71.5944 148.895 71.5944C155.719 71.5944 159.903 69.9442 161.024 68.3077C161.182 68.0827 161.318 67.8031 161.332 67.4281C161.332 67.278 161.312 67.128 161.291 66.9849C161.284 66.9575 161.279 66.932 161.274 66.9065C161.269 66.8808 161.264 66.8553 161.257 66.828C161.257 66.8143 161.25 66.8008 161.243 66.7871C161.216 66.6916 161.188 66.5962 161.147 66.4938C161.141 66.4734 161.135 66.4513 161.13 66.4291C161.125 66.407 161.12 66.3847 161.113 66.3643C159.09 61.782 154.7 58.9316 149.675 58.9316C144.65 58.9316 140.287 61.7615 138.257 66.3234C138.1 66.6847 138.018 67.0599 138.018 67.4553V68.1168C138.018 68.9418 138.312 69.6375 138.517 69.9442H138.51Z" fill="white"/>
<path d="M247.66 48.1582V51.9541H252.463V93.6027H257.145V48.1582H247.66Z" fill="white"/>
<path d="M239.989 53.6994C239.449 54.2812 238.616 54.5721 237.492 54.5721C236.368 54.5721 235.514 54.2812 234.93 53.6994C234.39 53.075 234.119 52.3088 234.119 51.3935C234.119 50.4782 234.39 49.7332 234.93 49.1514C235.514 48.527 236.368 48.2148 237.492 48.2148C238.616 48.2148 239.449 48.527 239.989 49.1514C240.53 49.7332 240.801 50.4782 240.801 51.3935C240.801 52.3088 240.53 53.075 239.989 53.6994Z" fill="white"/>
<path d="M215.37 74.8626C218.7 75.2387 221.411 76.1964 223.489 77.7291L223.482 77.7219C225.603 79.2546 226.663 81.4541 226.663 84.3204C226.663 86.2717 226.101 88.0384 224.976 89.6136C223.895 91.1531 222.358 92.3522 220.358 93.225C218.359 94.0976 216.025 94.5304 213.364 94.5304C209.116 94.5304 205.85 93.6152 203.558 91.7917C201.274 89.9257 200.107 87.4352 200.064 84.3204H204.433C204.512 85.8956 205.223 87.3289 206.554 88.6131C207.927 89.8972 210.19 90.543 213.357 90.543C216.31 90.543 218.515 89.9469 219.974 88.7407C221.475 87.492 222.223 86.0021 222.223 84.2567C222.223 82.6389 221.604 81.3973 220.351 80.5245C219.142 79.6093 217.377 79.0275 215.043 78.7792L211.3 78.4031C208.297 78.0696 205.864 77.1615 203.992 75.6643C202.164 74.1319 201.246 72.0317 201.246 69.378C201.246 67.434 201.744 65.7311 202.747 64.2767C203.75 62.8221 205.145 61.7011 206.931 60.9135C208.767 60.0905 210.909 59.6719 213.364 59.6719C216.9 59.6719 219.775 60.502 221.981 62.1623C224.229 63.8226 225.375 66.1853 225.418 69.2574H221.049C221.006 67.6753 220.337 66.3484 219.049 65.2699C217.761 64.1916 215.954 63.6523 213.371 63.6523C210.788 63.6523 208.852 64.2127 207.564 65.3338C206.319 66.4549 205.693 67.8242 205.693 69.4419C205.693 70.8112 206.177 71.9537 207.13 72.8689C208.091 73.7417 209.585 74.2807 211.627 74.4866L215.37 74.8626Z" fill="white"/>
<path fill-rule="evenodd" clip-rule="evenodd" d="M295.699 64.9018C297.2 66.5194 298.325 68.3713 299.072 70.443C299.862 72.4723 300.26 74.5511 300.26 76.6656V77.5382C300.26 79.6526 299.883 81.7245 299.136 83.7608C298.382 85.797 297.264 87.6418 295.763 89.3021C294.311 90.9197 292.497 92.2324 290.334 93.2258C288.171 94.1835 285.673 94.659 282.841 94.659C280.009 94.659 277.511 94.1835 275.348 93.2258C273.228 92.2253 271.42 90.9197 269.919 89.3021C268.46 87.6418 267.336 85.797 266.546 83.7608C265.799 81.7314 265.422 79.6526 265.422 77.5382V76.6656C265.422 74.5511 265.82 72.4794 266.61 70.443C267.4 68.3642 268.546 66.5194 270.047 64.9018C271.541 63.2841 273.356 61.9998 275.476 61.042C277.639 60.0416 280.052 59.5449 282.841 59.5449C285.63 59.5449 288.085 60.0487 290.206 61.042C292.369 61.9998 294.205 63.2841 295.699 64.9018ZM289.772 88.6778C291.686 87.4359 293.144 85.8184 294.141 83.8245H294.134C295.137 81.7883 295.635 79.5887 295.635 77.0983C295.635 74.6079 295.115 72.3658 294.077 70.3721C293.08 68.3359 291.622 66.7395 289.708 65.5759C287.794 64.3768 285.46 63.7736 282.841 63.7736C280.222 63.7736 277.953 64.3697 276.038 65.5759C274.124 66.7395 272.644 68.3359 271.605 70.3721C270.602 72.3658 270.104 74.6434 270.104 77.0983C270.104 79.5533 270.609 81.7883 271.605 83.8245C272.601 85.8113 274.039 87.429 275.91 88.6778C277.825 89.8768 280.094 90.4798 282.841 90.4798C285.588 90.4798 287.9 89.8839 289.772 88.6778Z" fill="white"/>
<path d="M231.188 60.6738V64.4059H236.496V93.6025H241.114V60.6738H231.188Z" fill="white"/>
</svg>
