<svg width="420" height="150" viewBox="0 0 420 150" fill="none" xmlns="http://www.w3.org/2000/svg">
<g clip-path="url(#clip0_22_15512)">
<mask id="mask0_22_15512" style="mask-type:luminance" maskUnits="userSpaceOnUse" x="85" y="43" width="250" height="64">
<path d="M334.985 43H85.0137V107H334.985V43Z" fill="white"/>
</mask>
<g mask="url(#mask0_22_15512)">
<path d="M169.195 80.4529H174.687C174.687 82.3003 175.616 83.5036 179.13 83.5036C182.318 83.5036 183.45 82.5798 183.45 81.1341C183.45 80.4128 183.086 79.8506 182.037 79.6109C180.987 79.37 179.372 79.2094 177.392 79.0474C174.527 78.8064 172.305 78.3661 171.094 77.5228C169.963 76.7196 169.195 75.2753 169.195 73.6303C169.195 69.3361 173.636 66.9668 179.169 66.9668C185.711 66.9668 188.699 69.4566 188.699 74.0719H183.288C183.247 71.9838 182.279 70.9009 179.251 70.9009C176.505 70.9009 175.293 71.8231 175.293 73.1885C175.293 74.0303 175.616 74.673 176.747 74.954C177.756 75.1949 179.532 75.3557 181.673 75.5565C184.136 75.7975 185.872 76.0384 187.366 76.8817C188.658 77.603 189.588 79.089 189.588 80.8143C189.588 84.9879 185.993 87.4376 179.169 87.4376C172.143 87.4376 169.195 84.4674 169.195 80.4529Z" fill="white"/>
<path d="M193.987 80.294V72.0271H191.039V67.2898H193.421C194.35 67.2898 194.674 66.7691 194.795 65.5644L195.078 62.7949H200.125V67.2898H206.504V72.0271H200.125V79.9727C200.125 82.0207 201.093 82.6618 203.516 82.6618C204.364 82.6618 205.617 82.5414 206.302 82.3808V86.9961C205.777 87.1166 204.081 87.4392 202.426 87.4392C196.207 87.4392 193.987 84.71 193.987 80.294Z" fill="white"/>
<path fill-rule="evenodd" clip-rule="evenodd" d="M208.283 81.4167C208.283 78.1653 210.625 75.7975 215.915 75.7975H222.415V74.4736C222.415 72.0642 221.043 71.1003 218.216 71.1003C215.915 71.1003 214.581 72.064 214.581 73.6689C214.581 73.7896 214.581 74.1122 214.622 74.5124H208.97C208.928 74.1924 208.888 73.7508 208.888 73.3491C208.888 69.3361 212.442 66.9668 218.499 66.9668C224.837 66.9668 228.553 69.7766 228.553 75.0745V87.1149H222.415C222.536 86.1124 222.697 84.3053 222.697 83.1019H222.657C222.051 85.9116 219.79 87.4376 216.157 87.4376C211.512 87.4376 208.283 85.4297 208.283 81.4167ZM222.415 79.4905V79.089H216.48C214.824 79.089 213.815 79.8506 213.815 80.9749C213.815 82.4996 215.147 83.3028 217.368 83.3028C220.558 83.3028 222.415 81.8986 222.415 79.4905Z" fill="white"/>
<path d="M231.414 67.2881H237.551L237.308 72.9476H237.389C238.238 69.1742 240.377 66.9668 244.295 66.9668C248.373 66.9668 250.756 69.5757 250.756 74.7131C250.756 75.8376 250.635 77.603 250.554 78.6472H244.982C245.061 77.6834 245.103 76.6809 245.103 76.0785C245.103 73.1885 243.931 72.0254 241.993 72.0254C239.369 72.0254 237.551 74.151 237.551 78.5655V87.1149H231.414V67.2881Z" fill="white"/>
<path fill-rule="evenodd" clip-rule="evenodd" d="M274.539 88.7627C274.539 93.2977 270.461 95.7073 263.556 95.7073C256.531 95.7073 252.371 93.7796 252.371 90.4881C252.371 88.4013 253.745 87.1162 255.965 86.8753V86.8365C254.753 86.0736 254.107 84.9894 254.107 83.5851C254.107 81.6992 255.076 80.5346 256.571 79.8519V79.8118C254.47 78.6084 253.3 76.6421 253.3 74.0734C253.3 69.6173 256.773 66.9683 262.627 66.9683C264.969 66.9683 266.908 67.3698 268.402 68.173L268.442 68.0926C267.634 67.3698 267.272 66.5666 267.272 65.8438C267.272 64.2001 268.927 63.2363 271.471 63.2363C272.561 63.2363 273.127 63.3167 273.691 63.4372V67.2894C273.328 67.2092 272.923 67.1689 272.479 67.1689C271.188 67.1689 270.582 67.7312 270.582 68.6534C270.582 69.1352 270.743 69.7376 271.026 70.4606C271.673 71.463 271.994 72.6679 271.994 74.0734C271.994 78.5282 268.523 81.1354 262.627 81.1354C261.417 81.1354 260.327 81.0165 259.316 80.8156C259.156 81.0566 258.954 81.5386 258.954 82.0994C258.954 82.9828 259.679 83.5049 260.892 83.5049H267.353C271.875 83.5049 274.539 85.4712 274.539 88.7627ZM268.399 89.6058C268.399 88.5216 267.593 87.9192 265.815 87.9192H261.091C259.435 87.9192 258.467 88.602 258.467 89.7263C258.467 91.2107 260.325 92.0126 263.473 92.0126C266.583 92.0126 268.399 91.1706 268.399 89.6058ZM259.073 74.0734C259.073 76.0798 260.407 77.2832 262.627 77.2832C264.89 77.2832 266.221 76.0798 266.221 74.0734C266.221 72.0267 264.89 70.822 262.627 70.822C260.407 70.822 259.073 72.0267 259.073 74.0734Z" fill="white"/>
<path fill-rule="evenodd" clip-rule="evenodd" d="M275.91 81.4167C275.91 78.1653 278.251 75.7975 283.542 75.7975H290.041V74.4736C290.041 72.0642 288.668 71.1003 285.843 71.1003C283.542 71.1003 282.209 72.064 282.209 73.6689C282.209 73.7896 282.209 74.1122 282.248 74.5124H276.596C276.556 74.1924 276.514 73.7508 276.514 73.3491C276.514 69.3361 280.069 66.9668 286.125 66.9668C292.463 66.9668 296.179 69.7766 296.179 75.0745V87.1149H290.041C290.162 86.1124 290.325 84.3053 290.325 83.1019H290.283C289.677 85.9116 287.416 87.4376 283.784 87.4376C279.141 87.4376 275.91 85.4297 275.91 81.4167ZM290.041 79.4905V79.089H284.106C282.451 79.089 281.442 79.8506 281.442 80.9749C281.442 82.4996 282.773 83.3028 284.994 83.3028C288.183 83.3028 290.041 81.8986 290.041 79.4905Z" fill="white"/>
<path d="M300.74 80.294V72.0271H297.791V67.2898H300.175C301.103 67.2898 301.427 66.7691 301.548 65.5644L301.83 62.7949H306.877V67.2898H313.259V72.0271H306.877V79.9727C306.877 82.0207 307.847 82.6618 310.271 82.6618C311.119 82.6618 312.369 82.5414 313.054 82.3808V86.9961C312.53 87.1166 310.833 87.4392 309.18 87.4392C302.961 87.4392 300.74 84.71 300.74 80.294Z" fill="white"/>
<path fill-rule="evenodd" clip-rule="evenodd" d="M334.987 78.3661H320.814C321.096 81.616 322.751 83.0216 325.497 83.0216C327.879 83.0216 329.413 82.1796 329.576 80.2521H334.987C334.865 84.7872 331.068 87.4376 325.376 87.4376C318.754 87.4376 314.635 83.7028 314.635 77.4024C314.635 70.8593 318.754 66.9668 325.497 66.9668C331.068 66.9668 334.987 70.138 334.987 76.6408V78.3661ZM329.576 74.7934C329.576 72.5459 328.04 71.3828 325.497 71.3828C322.912 71.3828 321.46 72.5058 320.975 75.1148H329.576V74.7934Z" fill="white"/>
<mask id="mask1_22_15512" style="mask-type:luminance" maskUnits="userSpaceOnUse" x="85" y="43" width="64" height="64">
<path d="M148.118 43.6367H85.0137V106.362H148.118V43.6367Z" fill="white"/>
</mask>
<g mask="url(#mask1_22_15512)">
<mask id="mask2_22_15512" style="mask-type:luminance" maskUnits="userSpaceOnUse" x="85" y="43" width="64" height="64">
<path d="M148.118 43.6367H85.0137V106.362H148.118V43.6367Z" fill="white"/>
</mask>
<g mask="url(#mask2_22_15512)">
<path d="M122.828 46.132L124.507 50.0419C127.804 57.7188 133.955 63.8336 141.679 67.1101L145.612 68.7793C146.642 69.2157 147.477 69.8413 148.123 70.5868C146.164 56.6257 135.055 45.5824 121.01 43.6367C121.758 44.2764 122.389 45.1087 122.828 46.132Z" fill="white"/>
<path d="M87.524 68.7793L91.4576 67.1101C99.1809 63.8336 105.333 57.7188 108.63 50.0419L110.308 46.132C110.749 45.1087 111.378 44.2764 112.126 43.6367C98.0811 45.5824 86.9726 56.6257 85.0137 70.5868C85.6588 69.8413 86.4946 69.2157 87.524 68.7793Z" fill="white"/>
<path d="M145.612 81.2195L141.679 82.8888C133.955 86.1651 127.804 92.2814 124.507 99.9584L122.828 103.867C122.389 104.89 121.758 105.722 121.01 106.364C135.055 104.417 146.164 93.3731 148.123 79.4121C147.477 80.1573 146.642 80.783 145.612 81.2195Z" fill="white"/>
<path d="M110.308 103.867L108.63 99.9584C105.333 92.2814 99.1809 86.1651 91.4576 82.8888L87.524 81.2195C86.4946 80.783 85.6588 80.1573 85.0137 79.4121C86.9726 93.3731 98.0811 104.417 112.126 106.364C111.378 105.722 110.749 104.89 110.308 103.867Z" fill="white"/>
</g>
<path d="M102.251 71.934L104.19 71.1111C107.995 69.496 111.027 66.4837 112.652 62.7011L113.478 60.774C114.638 58.0753 118.487 58.0753 119.646 60.774L120.472 62.7011C122.097 66.4837 125.129 69.496 128.934 71.1111L130.873 71.934C133.588 73.086 133.588 76.9106 130.873 78.0628L128.934 78.8857C125.129 80.5006 122.097 83.5129 120.472 87.2972L119.646 89.2225C118.487 91.9212 114.638 91.9212 113.478 89.2225L112.652 87.2972C111.027 83.5129 107.995 80.5006 104.19 78.8857L102.251 78.0628C99.5361 76.9106 99.5361 73.086 102.251 71.934Z" fill="white"/>
</g>
</g>
</g>
<defs>
<clipPath id="clip0_22_15512">
<rect width="249.971" height="64" fill="white" transform="translate(85.0137 43)"/>
</clipPath>
</defs>
</svg>
