<svg width="420" height="150" viewBox="0 0 420 150" fill="none" xmlns="http://www.w3.org/2000/svg">
<path fill-rule="evenodd" clip-rule="evenodd" d="M195.83 55C184.786 55 175.83 63.9558 175.83 75.0001C175.83 86.0443 184.786 95.0001 195.83 95.0001C206.875 95.0001 215.83 86.0443 215.83 75.0001C215.83 63.9558 206.875 55 195.83 55ZM195.83 85.7416C189.898 85.7416 185.089 80.9327 185.089 75.0001C185.089 69.0674 189.898 64.2584 195.83 64.2584C201.763 64.2584 206.572 69.0674 206.572 75.0001C206.572 80.9327 201.763 85.7416 195.83 85.7416ZM242.497 55C231.453 55 222.497 63.9558 222.497 75.0001C222.497 86.0443 231.453 95.0001 242.497 95.0001C253.541 95.0001 262.497 86.0443 262.497 75.0001C262.497 63.9558 253.541 55 242.497 55ZM242.497 85.7416C236.564 85.7416 231.755 80.9327 231.755 75.0001C231.755 69.0674 236.564 64.2584 242.497 64.2584C248.429 64.2584 253.238 69.0674 253.238 75.0001C253.238 80.9327 248.429 85.7416 242.497 85.7416ZM115.41 55.7413H125.092L132.701 80.6146L137.885 67.7769C138.566 66.097 140.196 64.9998 142.001 64.9998H145.69C147.506 64.9998 149.133 66.097 149.81 67.7769L154.994 80.6146L157.847 71.2956H167.529L161.472 91.1104C160.9 92.9756 159.175 94.2582 157.219 94.2582H153.825C152.009 94.2582 150.382 93.161 149.705 91.481L143.844 76.9862L137.983 91.481C137.302 93.161 135.671 94.2582 133.867 94.2582H130.473C128.516 94.2582 126.791 92.9832 126.22 91.1104L115.41 55.7413ZM162.603 55.7413L159.772 64.9998H169.455L172.292 55.7413H162.603Z" fill="white"/>
<path fill-rule="evenodd" clip-rule="evenodd" d="M265.16 55.7422L279.152 75.0006L265.16 94.2591H276.605L288.702 77.6151C289.837 76.0601 289.837 73.9487 288.702 72.3937L276.602 55.7422H265.16ZM293.143 55.7422L287.623 63.3434L293.341 71.2246L304.59 55.7422H293.143ZM287.783 86.8816L293.508 79.0005L304.581 94.2446L293.143 94.2596L287.783 86.8816Z" fill="white"/>
</svg>
