<svg width="420" height="150" viewBox="0 0 420 150" fill="none" xmlns="http://www.w3.org/2000/svg">
<path fill-rule="evenodd" clip-rule="evenodd" d="M194.142 68.6708V68.6674V54.1582H203.15V68.6674C203.15 73.4875 199.117 77.3952 194.142 77.3952V95.8831H184.994V77.3952C180.02 77.3952 175.986 73.4875 175.986 68.6674V54.1582H184.994V68.6674C184.994 70.9062 187.043 72.7219 189.568 72.7219C192.093 72.7219 194.14 70.9089 194.142 68.6708ZM258.443 70.501L272.793 54.1582H281.344L263.026 75.0207L281.344 95.8831H272.162L258.443 80.259V95.8831H249.296V54.1582H258.443V70.501ZM232.675 54.1603V54.1582H220.936C216.561 54.1582 213.014 58.0439 213.014 62.8378H213.007V95.8838H222.155V77.3959H231.288V95.8838H240.436V62.8378C240.436 58.1032 236.976 54.2547 232.675 54.161L232.675 54.1603ZM231.288 72.5462H222.155V62.8378C222.155 60.8988 223.832 59.2925 226.023 59.0079H227.419C229.61 59.2932 231.288 60.8995 231.288 62.8378V72.5462ZM310.24 54.1582V54.1603L310.24 54.161C314.541 54.2547 318.001 58.1032 318.001 62.8378V95.8838H308.853V77.3959H299.72V95.8838H290.572V62.8378H290.579C290.579 58.0439 294.126 54.1582 298.501 54.1582H310.24ZM299.72 72.5462H308.853V62.8378C308.853 60.8995 307.175 59.2932 304.984 59.0079H303.588C301.397 59.2925 299.72 60.8988 299.72 62.8378V72.5462Z" fill="white"/>
<path d="M194.142 68.6708L194.642 68.6713V68.6708H194.142ZM194.142 54.1582V53.6582H193.642V54.1582H194.142ZM203.15 54.1582H203.65V53.6582H203.15V54.1582ZM194.142 77.3952V76.8952H193.642V77.3952H194.142ZM194.142 95.8831V96.3831H194.642V95.8831H194.142ZM184.994 95.8831H184.494V96.3831H184.994V95.8831ZM184.994 77.3952H185.494V76.8952H184.994V77.3952ZM175.986 54.1582V53.6582H175.486V54.1582H175.986ZM184.994 54.1582H185.494V53.6582H184.994V54.1582ZM272.793 54.1582V53.6582H272.566L272.417 53.8283L272.793 54.1582ZM258.443 70.501H257.943V71.8283L258.819 70.8309L258.443 70.501ZM281.344 54.1582L281.72 54.4881L282.448 53.6582H281.344V54.1582ZM263.026 75.0207L262.65 74.6908L262.361 75.0207L262.65 75.3506L263.026 75.0207ZM281.344 95.8831V96.3831H282.448L281.72 95.5532L281.344 95.8831ZM272.162 95.8831L271.786 96.213L271.935 96.3831H272.162V95.8831ZM258.443 80.259L258.819 79.9291L257.943 78.9318V80.259H258.443ZM258.443 95.8831V96.3831H258.943V95.8831H258.443ZM249.296 95.8831H248.796V96.3831H249.296V95.8831ZM249.296 54.1582V53.6582H248.796V54.1582H249.296ZM258.443 54.1582H258.943V53.6582H258.443V54.1582ZM232.675 54.1582H233.175V53.6582H232.675V54.1582ZM232.675 54.1603H232.175V54.3669L232.321 54.5132L232.675 54.1603ZM213.014 62.8378V63.3378H213.514V62.8378H213.014ZM213.007 62.8378V62.3378H212.507V62.8378H213.007ZM213.007 95.8838H212.507V96.3838H213.007V95.8838ZM222.155 95.8838V96.3838H222.655V95.8838H222.155ZM222.155 77.3959V76.8959H221.655V77.3959H222.155ZM231.288 77.3959H231.788V76.8959H231.288V77.3959ZM231.288 95.8838H230.788V96.3838H231.288V95.8838ZM240.436 95.8838V96.3838H240.936V95.8838H240.436ZM232.675 54.161L232.321 54.5139L232.463 54.6565L232.665 54.6609L232.675 54.161ZM222.155 72.5462H221.655V73.0462H222.155V72.5462ZM231.288 72.5462V73.0462H231.788V72.5462H231.288ZM226.023 59.0079V58.5079H225.991L225.959 58.5121L226.023 59.0079ZM227.419 59.0079L227.484 58.5121L227.452 58.5079H227.419V59.0079ZM310.24 54.1603H309.74V54.3669L309.886 54.5132L310.24 54.1603ZM310.24 54.1582H310.74V53.6582H310.24V54.1582ZM310.24 54.161L309.886 54.5139L310.028 54.6565L310.23 54.6609L310.24 54.161ZM318.001 95.8838V96.3838H318.501V95.8838H318.001ZM308.853 95.8838H308.353V96.3838H308.853V95.8838ZM308.853 77.3959H309.353V76.8959H308.853V77.3959ZM299.72 77.3959V76.8959H299.22V77.3959H299.72ZM299.72 95.8838V96.3838H300.22V95.8838H299.72ZM290.572 95.8838H290.072V96.3838H290.572V95.8838ZM290.572 62.8378V62.3378H290.072V62.8378H290.572ZM290.579 62.8378V63.3378H291.079V62.8378H290.579ZM308.853 72.5462V73.0462H309.353V72.5462H308.853ZM299.72 72.5462H299.22V73.0462H299.72V72.5462ZM304.984 59.0079L305.049 58.5121L305.017 58.5079H304.984V59.0079ZM303.588 59.0079V58.5079H303.556L303.524 58.5121L303.588 59.0079ZM193.642 68.6674V68.6708H194.642V68.6674H193.642ZM193.642 54.1582V68.6674H194.642V54.1582H193.642ZM203.15 53.6582H194.142V54.6582H203.15V53.6582ZM203.65 68.6674V54.1582H202.65V68.6674H203.65ZM194.142 77.8952C199.378 77.8952 203.65 73.7784 203.65 68.6674H202.65C202.65 73.1965 198.856 76.8952 194.142 76.8952V77.8952ZM194.642 95.8831V77.3952H193.642V95.8831H194.642ZM184.994 96.3831H194.142V95.3831H184.994V96.3831ZM184.494 77.3952V95.8831H185.494V77.3952H184.494ZM175.486 68.6674C175.486 73.7784 179.758 77.8952 184.994 77.8952V76.8952C180.281 76.8952 176.486 73.1965 176.486 68.6674H175.486ZM175.486 54.1582V68.6674H176.486V54.1582H175.486ZM184.994 53.6582H175.986V54.6582H184.994V53.6582ZM185.494 68.6674V54.1582H184.494V68.6674H185.494ZM189.568 72.2219C187.261 72.2219 185.494 70.5751 185.494 68.6674H184.494C184.494 71.2373 186.825 73.2219 189.568 73.2219V72.2219ZM193.642 68.6704C193.64 70.5776 191.876 72.2219 189.568 72.2219V73.2219C192.311 73.2219 194.64 71.2402 194.642 68.6713L193.642 68.6704ZM272.417 53.8283L258.067 70.1711L258.819 70.8309L273.168 54.4881L272.417 53.8283ZM281.344 53.6582H272.793V54.6582H281.344V53.6582ZM263.402 75.3506L281.72 54.4881L280.968 53.8283L262.65 74.6908L263.402 75.3506ZM281.72 95.5532L263.402 74.6908L262.65 75.3506L280.968 96.213L281.72 95.5532ZM272.162 96.3831H281.344V95.3831H272.162V96.3831ZM258.067 80.5889L271.786 96.213L272.537 95.5532L258.819 79.9291L258.067 80.5889ZM258.943 95.8831V80.259H257.943V95.8831H258.943ZM249.296 96.3831H258.443V95.3831H249.296V96.3831ZM248.796 54.1582V95.8831H249.796V54.1582H248.796ZM258.443 53.6582H249.296V54.6582H258.443V53.6582ZM258.943 70.501V54.1582H257.943V70.501H258.943ZM232.175 54.1582V54.1603H233.175V54.1582H232.175ZM220.936 54.6582H232.675V53.6582H220.936V54.6582ZM213.514 62.8378C213.514 58.2761 216.879 54.6582 220.936 54.6582V53.6582C216.243 53.6582 212.514 57.8118 212.514 62.8378H213.514ZM213.007 63.3378H213.014V62.3378H213.007V63.3378ZM213.507 95.8838V62.8378H212.507V95.8838H213.507ZM222.155 95.3838H213.007V96.3838H222.155V95.3838ZM221.655 77.3959V95.8838H222.655V77.3959H221.655ZM231.288 76.8959H222.155V77.8959H231.288V76.8959ZM231.788 95.8838V77.3959H230.788V95.8838H231.788ZM240.436 95.3838H231.288V96.3838H240.436V95.3838ZM239.936 62.8378V95.8838H240.936V62.8378H239.936ZM232.665 54.6609C236.653 54.7478 239.936 58.3331 239.936 62.8378H240.936C240.936 57.8733 237.299 53.7616 232.686 53.6611L232.665 54.6609ZM232.321 54.5132L232.321 54.5139L233.03 53.8081L233.029 53.8074L232.321 54.5132ZM222.155 73.0462H231.288V72.0462H222.155V73.0462ZM221.655 62.8378V72.5462H222.655V62.8378H221.655ZM225.959 58.5121C223.587 58.8202 221.655 60.5842 221.655 62.8378H222.655C222.655 61.2133 224.078 59.7649 226.088 59.5038L225.959 58.5121ZM227.419 58.5079H226.023V59.5079H227.419V58.5079ZM231.788 62.8378C231.788 60.5848 229.855 58.8209 227.484 58.5121L227.355 59.5038C229.365 59.7655 230.788 61.2141 230.788 62.8378H231.788ZM231.788 72.5462V62.8378H230.788V72.5462H231.788ZM310.74 54.1603V54.1582H309.74V54.1603H310.74ZM310.595 53.8081L310.594 53.8074L309.886 54.5132L309.886 54.5139L310.595 53.8081ZM318.501 62.8378C318.501 57.8733 314.864 53.7616 310.251 53.6611L310.23 54.6609C314.218 54.7478 317.501 58.3331 317.501 62.8378H318.501ZM318.501 95.8838V62.8378H317.501V95.8838H318.501ZM308.853 96.3838H318.001V95.3838H308.853V96.3838ZM308.353 77.3959V95.8838H309.353V77.3959H308.353ZM299.72 77.8959H308.853V76.8959H299.72V77.8959ZM300.22 95.8838V77.3959H299.22V95.8838H300.22ZM290.572 96.3838H299.72V95.3838H290.572V96.3838ZM290.072 62.8378V95.8838H291.072V62.8378H290.072ZM290.579 62.3378H290.572V63.3378H290.579V62.3378ZM298.501 53.6582C293.808 53.6582 290.079 57.8118 290.079 62.8378H291.079C291.079 58.2761 294.444 54.6582 298.501 54.6582V53.6582ZM310.24 53.6582H298.501V54.6582H310.24V53.6582ZM308.853 72.0462H299.72V73.0462H308.853V72.0462ZM308.353 62.8378V72.5462H309.353V62.8378H308.353ZM304.92 59.5038C306.93 59.7655 308.353 61.2141 308.353 62.8378H309.353C309.353 60.5848 307.42 58.8209 305.049 58.5121L304.92 59.5038ZM303.588 59.5079H304.984V58.5079H303.588V59.5079ZM300.22 62.8378C300.22 61.2133 301.643 59.7649 303.653 59.5038L303.524 58.5121C301.152 58.8202 299.22 60.5842 299.22 62.8378H300.22ZM300.22 72.5462V62.8378H299.22V72.5462H300.22Z" fill="white"/>
<path fill-rule="evenodd" clip-rule="evenodd" d="M131.785 91.2719L131.837 91.348C133.575 93.853 135.941 95.24 138.937 95.509C137.553 96.1012 133.141 98.1525 131.907 104.999L131.785 105C131.744 105 131.703 105 131.663 105C130.429 98.1525 126.016 96.1012 124.633 95.509C127.659 95.2373 130.043 93.8248 131.785 91.2719ZM131.785 45C148.235 45 161.57 58.4315 161.57 75C161.57 90.2629 150.253 102.864 135.611 104.755C136.271 101.759 137.906 99.6739 140.517 98.4998C146.361 95.8711 150.685 95.0879 152.441 87.3277C154.196 79.5676 146.064 72.3982 147.116 67.9731C148.002 67.6641 148.913 68.0962 149.85 69.2696L150.2 59.4858C147.656 60.784 146.037 63.2656 145.342 66.9307C144.577 72.2625 147.593 74.2851 147.805 80.8064C148.017 87.3277 145.03 90.7023 140.634 91.7899C136.238 92.8775 133.811 88.2984 133.811 86.8409C133.811 86.4036 133.762 85.0859 133.663 82.8876L133.65 82.5893C133.529 79.908 133.339 76.0053 133.082 70.8812L132.248 53.6118L134.229 54.4846L131.785 47.6094L129.341 54.4846L131.321 53.6118L130.488 70.8812C130.23 76.0053 130.041 79.908 129.92 82.5893L129.907 82.8876C129.808 85.0859 129.759 86.4036 129.759 86.8409C129.759 88.2984 127.332 92.8775 122.936 91.7899C118.54 90.7023 115.553 87.3277 115.765 80.8064C115.977 74.2851 118.993 72.2625 118.227 66.9307C117.532 63.2656 115.913 60.784 113.37 59.4858L113.719 69.2696C114.657 68.0962 115.568 67.6641 116.454 67.9731C117.506 72.3982 109.373 79.5676 111.129 87.3277C112.885 95.0879 117.208 95.8711 123.053 98.4998C125.663 99.6739 127.299 101.759 127.959 104.754C113.316 102.864 102 90.2629 102 75C102 58.4315 115.335 45 131.785 45Z" fill="white"/>
</svg>
