<svg width="105" height="48" viewBox="0 0 105 48" fill="none" xmlns="http://www.w3.org/2000/svg">
<g clip-path="url(#clip0_7_32674)">
<path fill-rule="evenodd" clip-rule="evenodd" d="M23.8796 47.9394C30.9108 47.9394 37.236 44.9212 41.6263 40.1115L40.4582 38.8242C39.0124 37.2311 36.5479 37.0949 34.9341 38.5191L32.442 40.7182C29.0518 43.7101 23.8988 43.5214 20.7383 40.2897L19.1801 38.6964C17.6838 37.1664 15.232 37.1133 13.6699 38.5768L9.09937 42.8588C13.1741 46.0421 18.3049 47.9394 23.8796 47.9394ZM43.8354 35.7855L44.4027 36.4108C46.6126 32.784 47.8854 28.5254 47.8854 23.9697C47.8854 18.4458 46.014 13.3582 42.8696 9.30471C42.2851 9.45431 41.7265 9.74062 41.244 10.1664L38.7521 12.3655C35.3619 15.3574 30.209 15.1688 27.0484 11.9371L25.4903 10.3439C23.9938 8.81387 21.5421 8.76054 19.98 10.224L13.5684 16.2312L10.4491 12.9305L16.8608 6.92329C20.2315 3.76528 25.5223 3.88038 28.7512 7.18195L30.3093 8.77524C31.7741 10.2728 34.1619 10.3602 35.7331 8.97373L38.225 6.77461C38.6433 6.40555 39.0879 6.08506 39.5522 5.81272C35.3466 2.19039 29.8692 0 23.8796 0C11.8368 0 1.86523 8.85441 0.138362 20.3989C3.42453 18.5101 7.6914 19.0039 10.4516 21.8262L12.2536 23.6687C13.6543 25.1011 15.9138 25.2521 17.4942 24.0192L22.8362 19.8521C26.0425 17.3509 30.5816 17.4719 33.6488 20.1403L40.9227 26.4682L37.9281 29.8811L30.654 23.5534C29.2326 22.3167 27.1291 22.2607 25.6434 23.4199L20.3014 27.587C16.8909 30.2474 12.0152 29.9213 8.99261 26.8308L7.19059 24.9882C5.69425 23.4582 3.24242 23.4048 1.68041 24.8683L0 26.4426C0.519685 31.5055 2.61749 36.1016 5.79416 39.7325L10.5508 35.2759C13.9214 32.118 19.2122 32.2329 22.441 35.5346L23.9994 37.1279C25.464 38.6254 27.852 38.7129 29.423 37.3265L31.915 35.1273C35.3973 32.0541 40.7158 32.3479 43.8354 35.7855Z" fill="white"/>
</g>
<path d="M66.7471 35.512C64.5071 35.512 62.7685 35.032 61.5311 34.072C60.3151 33.112 59.6858 31.8 59.6431 30.136H62.5231C62.5658 30.7973 62.8965 31.4267 63.5151 32.024C64.1551 32.6 65.2325 32.888 66.7471 32.888C68.1125 32.888 69.1578 32.6213 69.8831 32.088C70.6085 31.5333 70.9711 30.8613 70.9711 30.072C70.9711 29.368 70.7045 28.824 70.1711 28.44C69.6378 28.0347 68.7738 27.768 67.5791 27.64L65.7231 27.448C64.1018 27.2773 62.7791 26.7973 61.7551 26.008C60.7311 25.1973 60.2191 24.0667 60.2191 22.616C60.2191 21.528 60.4965 20.6 61.0511 19.832C61.6058 19.0427 62.3738 18.4453 63.3551 18.04C64.3365 17.6133 65.4671 17.4 66.7471 17.4C68.6671 17.4 70.2245 17.8267 71.4191 18.68C72.6138 19.5333 73.2325 20.8027 73.2751 22.488H70.3951C70.3738 21.8053 70.0538 21.2293 69.4351 20.76C68.8378 20.2693 67.9418 20.024 66.7471 20.024C65.5525 20.024 64.6458 20.2693 64.0271 20.76C63.4085 21.2507 63.0991 21.8693 63.0991 22.616C63.0991 23.256 63.3125 23.768 63.7391 24.152C64.1871 24.536 64.9125 24.7813 65.9151 24.888L67.7711 25.08C69.6058 25.272 71.0778 25.784 72.1871 26.616C73.2965 27.4267 73.8511 28.5787 73.8511 30.072C73.8511 31.1387 73.5418 32.088 72.9231 32.92C72.3258 33.7307 71.4938 34.3707 70.4271 34.84C69.3605 35.288 68.1338 35.512 66.7471 35.512ZM85.5674 35.576C84.074 35.576 82.7834 35.32 81.6954 34.808C80.6074 34.296 79.722 33.624 79.0394 32.792C78.3567 31.9387 77.8447 30.9893 77.5034 29.944C77.1834 28.8987 77.0234 27.832 77.0234 26.744V26.168C77.0234 25.0587 77.1834 23.9813 77.5034 22.936C77.8447 21.8907 78.3567 20.952 79.0394 20.12C79.722 19.2667 80.586 18.5947 81.6314 18.104C82.698 17.592 83.946 17.336 85.3754 17.336C87.2314 17.336 88.7567 17.7413 89.9514 18.552C91.1674 19.3413 92.0634 20.3653 92.6394 21.624C93.2367 22.8827 93.5354 24.2267 93.5354 25.656V27.032H78.3674V24.728H91.2954L90.5914 25.976C90.5914 24.76 90.3994 23.7147 90.0154 22.84C89.6314 21.944 89.0554 21.2507 88.2874 20.76C87.5194 20.2693 86.5487 20.024 85.3754 20.024C84.1594 20.024 83.146 20.3013 82.3354 20.856C81.546 21.4107 80.9487 22.168 80.5434 23.128C80.1594 24.088 79.9674 25.1973 79.9674 26.456C79.9674 27.672 80.1594 28.7707 80.5434 29.752C80.9487 30.712 81.5674 31.48 82.3994 32.056C83.2314 32.6107 84.2874 32.888 85.5674 32.888C86.9114 32.888 87.9994 32.5893 88.8314 31.992C89.6847 31.3947 90.1967 30.7013 90.3674 29.912H93.2474C93.0127 31.0853 92.5434 32.0987 91.8394 32.952C91.1354 33.8053 90.25 34.456 89.1834 34.904C88.1167 35.352 86.9114 35.576 85.5674 35.576ZM98.7291 35V17.912H101.801V35H98.7291ZM96.1051 20.344V17.912H101.801V20.344H96.1051ZM99.5931 15.16C98.9105 15.16 98.3985 14.9787 98.0571 14.616C97.7371 14.2533 97.5771 13.7947 97.5771 13.24C97.5771 12.6853 97.7371 12.2267 98.0571 11.864C98.3985 11.5013 98.9105 11.32 99.5931 11.32C100.276 11.32 100.777 11.5013 101.097 11.864C101.438 12.2267 101.609 12.6853 101.609 13.24C101.609 13.7947 101.438 14.2533 101.097 14.616C100.777 14.9787 100.276 15.16 99.5931 15.16Z" fill="white"/>
<defs>
<clipPath id="clip0_7_32674">
<rect width="48" height="48" rx="24" fill="white"/>
</clipPath>
</defs>
</svg>
