<svg width="40" height="40" viewBox="0 0 40 40" fill="none" xmlns="http://www.w3.org/2000/svg">
<g clip-path="url(#clip0_22_15741)">
<g clip-path="url(#clip1_22_15741)">
<path fill-rule="evenodd" clip-rule="evenodd" d="M20 0C31.0457 0 40 8.9543 40 20C40 31.0457 31.0457 40 20 40C8.9543 40 0 31.0457 0 20C0 8.9543 8.9543 0 20 0ZM24.6928 7.36865C27.0678 7.76985 29.3798 8.48175 31.5703 9.48415C35.343 15.0009 37.2168 21.2224 36.5251 28.4011C33.9763 30.2856 31.1215 31.7166 28.0856 32.6321C27.4023 31.7143 26.7988 30.7404 26.2798 29.7213C27.2678 29.3523 28.2215 28.8963 29.1298 28.3606C28.894 28.2011 28.6606 28.0224 28.4321 27.8368C23.0916 30.3488 16.9093 30.3488 11.5688 27.8368L11.542 27.8572C11.3242 28.0235 11.0999 28.1947 10.8712 28.3606C11.7772 28.8963 12.7296 29.3511 13.7153 29.7189C13.1962 30.7393 12.5926 31.7129 11.9093 32.6321C8.87594 31.7129 6.0235 30.2809 3.47467 28.3974C2.88419 22.2069 4.06397 15.9283 8.4164 9.4901C10.6081 8.48652 12.9224 7.77342 15.2986 7.36865C15.6236 7.9496 15.9177 8.54724 16.1796 9.15915C18.7095 8.77819 21.282 8.77819 23.8118 9.15915C24.0738 8.54724 24.3678 7.9496 24.6928 7.36865ZM11.4605 21.2641C11.4605 23.0998 12.8188 24.5914 14.4629 24.5914C16.1379 24.5914 17.4331 23.0998 17.4618 21.2641C17.4903 19.4283 16.1427 17.9236 14.457 17.9236C12.7712 17.9236 11.4605 19.4283 11.4605 21.2641ZM22.538 21.2641C22.538 23.0998 23.8905 24.5914 25.5368 24.5914C27.2118 24.5914 28.5048 23.0998 28.5333 21.2641C28.562 19.4283 27.225 17.9236 25.5368 17.9236C23.8488 17.9236 22.538 19.4283 22.538 21.2641Z" fill="#3F3A52"/>
</g>
</g>
<defs>
<clipPath id="clip0_22_15741">
<rect width="40" height="40" rx="20" fill="white"/>
</clipPath>
<clipPath id="clip1_22_15741">
<rect width="40" height="40" fill="white"/>
</clipPath>
</defs>
</svg>
