<svg width="40" height="40" viewBox="0 0 40 40" fill="none" xmlns="http://www.w3.org/2000/svg">
<g clip-path="url(#clip0_23_15851)">
<rect width="40" height="40" rx="20" fill="#15131D"/>
<g clip-path="url(#clip1_23_15851)">
<path fill-rule="evenodd" clip-rule="evenodd" d="M20 40C31.0457 40 40 31.0457 40 20C40 8.9543 31.0457 0 20 0C8.9543 0 0 8.9543 0 20C0 31.0457 8.9543 40 20 40ZM21.9219 20.0188C21.9219 15.4565 18.134 11.7578 13.461 11.7578C8.78812 11.7578 5 15.4565 5 20.0188C5 24.5811 8.78841 28.2795 13.461 28.2795C18.1337 28.2795 21.9219 24.5811 21.9219 20.0188ZM31.2033 20.0188C31.2033 15.7232 29.3092 12.2417 26.9727 12.2417C24.6363 12.2417 22.7425 15.7244 22.7425 20.0188C22.7425 24.3132 24.6365 27.7959 26.9729 27.7959C29.3095 27.7959 31.2033 24.3132 31.2033 20.0188ZM35 20.0188C35 16.1709 34.3337 13.0518 33.5121 13.0518C32.6907 13.0518 32.0245 16.1712 32.0245 20.0188C32.0245 23.8664 32.6903 26.9857 33.5121 26.9857C34.334 26.9857 35 23.8655 35 20.0188Z" fill="#3F3A52"/>
</g>
</g>
<defs>
<clipPath id="clip0_23_15851">
<rect width="40" height="40" rx="20" fill="white"/>
</clipPath>
<clipPath id="clip1_23_15851">
<rect width="40" height="40" fill="white"/>
</clipPath>
</defs>
</svg>
