<svg width="40" height="40" viewBox="0 0 40 40" fill="none" xmlns="http://www.w3.org/2000/svg">
<g clip-path="url(#clip0_22_15746)">
<rect width="40" height="40" rx="20" fill="#15131D"/>
<g clip-path="url(#clip1_22_15746)">
<path fill-rule="evenodd" clip-rule="evenodd" d="M20 40C31.0457 40 40 31.0457 40 20C40 8.9543 31.0457 0 20 0C8.9543 0 0 8.9543 0 20C0 31.0457 8.9543 40 20 40ZM17.3241 21.2369L8.05803 8H15.1994L21.2747 16.678L28.7934 8H30.8918L22.2117 18.018L32 32H24.8586L18.2628 22.5769L10.0984 32H8L17.3241 21.2369ZM14.4254 9.652H11.1448L25.6326 30.3489H28.9132L14.4254 9.652Z" fill="#3F3A52"/>
</g>
</g>
<defs>
<clipPath id="clip0_22_15746">
<rect width="40" height="40" rx="20" fill="white"/>
</clipPath>
<clipPath id="clip1_22_15746">
<rect width="40" height="40" fill="white"/>
</clipPath>
</defs>
</svg>
